<?xml version="1.0" encoding="UTF-8"?>
<svg width="35px" height="35px" viewBox="0 0 35 35" version="1.1" xmlns="http://www.w3.org/2000/svg" xmlns:xlink="http://www.w3.org/1999/xlink">
    <!-- Generator: Sketch 52.6 (67491) - http://www.bohemiancoding.com/sketch -->
    <title>Group 3</title>
    <desc>Created with Sketch.</desc>
    <g id="Page-Flujo-bien" stroke="none" stroke-width="1" fill="none" fill-rule="evenodd">
        <g id="Detalle-flex-v2" transform="translate(-137.000000, -540.000000)">
            <g id="Group-3" transform="translate(137.000000, 540.000000)">
                <g id="Group-10-Copy" fill="#00C1B5" opacity="0.109207589">
                    <g id="Group-2" transform="translate(0.000000, 0.060631)">
                        <path d="M2.32764683,15.5231748 C2.54662403,14.2908364 3.14904013,13.1828081 4.02980783,12.392378 L16.3704591,1.31746776 C16.8878351,0.853157345 17.4861128,0.512181945 18.1278544,0.315878359 C20.7034625,-0.471979382 23.3677121,1.20327277 24.0786225,4.05765877 L28.6094895,22.2496039 C28.616689,22.2785105 28.6236695,22.3074836 28.6304303,22.3365201 C29.2980265,25.2037231 27.7419017,28.1278217 25.1547284,28.8676769 L6.04764451,34.3317392 C5.34678335,34.5321648 4.61427358,34.5557518 3.90409426,34.4007622 C1.28252365,33.8286301 -0.424172716,31.0095954 0.0920812318,28.104272 L2.32764683,15.5231748 Z" id="Path-21"></path>
                    </g>
                </g>
                <g id="Group-23" transform="translate(8.000000, 7.000000)" stroke="#00C1B5" stroke-width="1.48176">
                    <path d="M12.9170407,8.9274 C13.2097815,8.9264 13.4849481,8.98915 13.7259296,9.19715 L12.9172815,10.0369 L12.1088741,9.19715 C12.3498556,8.98915 12.6243,8.9264 12.9170407,8.9274 Z" id="Stroke-1"></path>
                    <path d="M24.6651648,18.915125 C24.6651648,19.467375 24.2339981,19.915125 23.7022019,19.915125 L2.13231296,19.915125 C1.60051667,19.915125 1.16935,19.467375 1.16935,18.915125 L1.16935,16.456375 C1.16935,15.351625 2.03168333,14.456375 3.09527593,14.456375 L22.7392389,14.456375 C23.8028315,14.456375 24.6651648,15.351625 24.6651648,16.456375 L24.6651648,18.915125 Z" id="Stroke-3"></path>
                    <path d="M20.3292796,3.1882 C16.2357241,-1.0628 9.59898333,-1.0628 5.50542778,3.1882 C9.59898333,-1.0628 16.2357241,-1.0628 20.3292796,3.1882 Z" id="Stroke-5"></path>
                    <path d="M18.2865463,5.309525 C15.3259167,2.235025 10.5086944,2.235025 7.54806481,5.309525 C10.5086944,2.235025 15.3259167,2.235025 18.2865463,5.309525 Z" id="Stroke-7"></path>
                    <path d="M16.2437889,7.43085 C14.4095852,5.5261 11.4251222,5.5261 9.59091852,7.43085 C11.4251222,5.5261 14.4095852,5.5261 16.2437889,7.43085 Z" id="Stroke-9"></path>
                    <path d="M7.87072963,17.1857 L5.85211852,17.1857 L7.87072963,17.1857 Z" id="Stroke-11"></path>
                    <path d="M11.9079759,17.1857 L9.88936481,17.1857 L11.9079759,17.1857 Z" id="Stroke-13"></path>
                    <path d="M15.9452463,17.1857 L13.9266352,17.1857 L15.9452463,17.1857 Z" id="Stroke-15"></path>
                    <path d="M19.9825167,17.1857 L17.9639056,17.1857 L19.9825167,17.1857 Z" id="Stroke-17"></path>
                    <path d="M0,1.728025 L2.43798148,14.456275 L0,1.728025 Z" id="Stroke-19" stroke-linecap="round" stroke-linejoin="round"></path>
                    <path d="M25.8346352,1.728025 L23.3966537,14.456275 L25.8346352,1.728025 Z" id="Stroke-21" stroke-linecap="round" stroke-linejoin="round"></path>
                </g>
            </g>
        </g>
    </g>
</svg>