<svg xmlns="http://www.w3.org/2000/svg" width="107" height="113" viewBox="0 0 107 113">
    <g fill="#00C1B5" fill-rule="evenodd">
        <path d="M82.774 58.523c-.31 3.933-1.82 7.617-4.267 10.41L44.22 108.058c-1.438 1.64-3.156 2.924-5.048 3.772-7.595 3.402-16.168-.866-19.15-9.533L1.026 47.062c-.03-.088-.06-.176-.088-.264-2.853-8.722 1.03-18.433 8.674-21.688L66.06 1.064a13.096 13.096 0 0 1 6.49-.996c8.125.834 14.12 9.027 13.389 18.3l-3.166 40.155z" opacity=".109"/>
        <g fill-rule="nonzero">
            <path d="M72.836 23C61.661 23 51.333 28.463 45 37.334a9.846 9.846 0 0 1 4.29 2.517l1.044 1.042a27.812 27.812 0 0 1 22.502-11.49c15.302 0 27.75 12.426 27.75 27.7a27.643 27.643 0 0 1-11.503 22.47l.805.804A9.845 9.845 0 0 1 92.5 85 34.028 34.028 0 0 0 107 57.103C107 38.3 91.674 23 72.836 23zM77.442 76.149a4.22 4.22 0 0 0-3.474-1.261 11.733 11.733 0 0 0-6.284 2.625 1.399 1.399 0 0 1-1.773.007 91.506 91.506 0 0 1-13.795-14.052 1.465 1.465 0 0 1 .006-1.813 12.16 12.16 0 0 0 2.573-6.389 4.416 4.416 0 0 0-1.24-3.537l-8.296-8.446a4.238 4.238 0 0 0-3.463-1.262 11.794 11.794 0 0 0-7.221 3.482c-3.728 3.796-4.553 9.714-2.005 14.391 6.489 12.052 22.095 29.422 36.984 37.638A11.716 11.716 0 0 0 75.131 99a11.88 11.88 0 0 0 8.427-3.527 12.193 12.193 0 0 0 3.421-7.353 4.412 4.412 0 0 0-1.24-3.525l-8.297-8.446z"/>
            <path d="M74.177 35C72.975 35 72 36.01 72 37.255v18.49C72 56.99 72.975 58 74.177 58h16.646C92.025 58 93 56.99 93 55.745c0-1.245-.975-2.255-2.177-2.255H76.354V37.255c0-1.245-.975-2.255-2.177-2.255z"/>
        </g>
    </g>
</svg>
