<svg xmlns="http://www.w3.org/2000/svg" width="107" height="113" viewBox="0 0 107 113">
    <g fill="#00C1B5" fill-rule="evenodd">
        <path d="M38.25 7.495L2.9 62.673C-1.57 69.648.461 78.926 7.437 83.395a15 15 0 0 0 1.306.747l53.554 27.162c7.388 3.747 16.415.796 20.163-6.592a15 15 0 0 0 .351-.743l22.602-51.354a15 15 0 0 0-4.658-17.989L59.952 3.64C53.354-1.37 43.944-.083 38.934 6.515a15 15 0 0 0-.684.98z" opacity=".109"/>
        <path fill-rule="nonzero" d="M100.408 51.908c-2.864 0-5.306 1.838-6.214 4.395h-5.042a19.68 19.68 0 0 0-4.208-10.14l3.468-3.467a6.599 6.599 0 0 0 7.501-1.287 6.6 6.6 0 0 0 0-9.322 6.6 6.6 0 0 0-9.322 0c-2.026 2.026-2.453 5.051-1.287 7.501l-3.468 3.468a19.68 19.68 0 0 0-10.139-4.208v-5.042c2.558-.908 4.395-3.35 4.395-6.214A6.6 6.6 0 0 0 69.5 21a6.6 6.6 0 0 0-6.592 6.592c0 2.864 1.837 5.306 4.395 6.214v5.042a19.68 19.68 0 0 0-10.14 4.208l-3.467-3.467c1.166-2.45.738-5.476-1.287-7.502a6.6 6.6 0 0 0-9.322 0 6.6 6.6 0 0 0 0 9.322 6.602 6.602 0 0 0 7.501 1.286l3.468 3.469a19.68 19.68 0 0 0-4.208 10.139h-5.042c-.908-2.557-3.35-4.395-6.214-4.395A6.6 6.6 0 0 0 32 58.5a6.6 6.6 0 0 0 6.592 6.592c2.864 0 5.306-1.838 6.214-4.395h5.042a19.68 19.68 0 0 0 4.208 10.14l-3.468 3.467a6.601 6.601 0 0 0-7.501 1.287 6.6 6.6 0 0 0 0 9.322 6.6 6.6 0 0 0 9.322 0c2.026-2.026 2.453-5.052 1.287-7.502l3.468-3.467a19.672 19.672 0 0 0 10.139 4.208v5.042c-2.558.908-4.395 3.35-4.395 6.214A6.6 6.6 0 0 0 69.5 96a6.6 6.6 0 0 0 6.592-6.592c0-2.864-1.837-5.306-4.395-6.214v-5.042a19.67 19.67 0 0 0 10.14-4.208l3.467 3.467c-1.166 2.45-.738 5.476 1.287 7.502a6.6 6.6 0 0 0 9.322 0 6.6 6.6 0 0 0 0-9.322 6.602 6.602 0 0 0-7.501-1.287l-3.468-3.467a19.683 19.683 0 0 0 4.208-10.14h5.042c.908 2.557 3.35 4.395 6.214 4.395A6.6 6.6 0 0 0 107 58.5a6.6 6.6 0 0 0-6.592-6.592zm-10.71-16.713a2.195 2.195 0 0 1 3.107 0 2.2 2.2 0 0 1 0 3.107 2.2 2.2 0 0 1-3.107 0 2.195 2.195 0 0 1 0-3.107zm-40.396 3.107a2.2 2.2 0 0 1-3.107 0 2.197 2.197 0 1 1 3.107 0zm-10.71 22.395a2.2 2.2 0 0 1-2.197-2.197 2.2 2.2 0 0 1 2.197-2.197 2.2 2.2 0 0 1 2.197 2.197 2.2 2.2 0 0 1-2.197 2.197zm10.71 21.108a2.195 2.195 0 0 1-3.107 0 2.199 2.199 0 0 1 0-3.107 2.2 2.2 0 0 1 3.107 0 2.195 2.195 0 0 1 0 3.107zM69.5 25.395a2.2 2.2 0 0 1 2.197 2.197 2.2 2.2 0 0 1-2.197 2.197 2.2 2.2 0 0 1-2.197-2.197 2.2 2.2 0 0 1 2.197-2.197zm0 66.21a2.2 2.2 0 0 1-2.197-2.197 2.2 2.2 0 0 1 2.197-2.197 2.2 2.2 0 0 1 2.197 2.197 2.2 2.2 0 0 1-2.197 2.197zm6.592-19.21A15.289 15.289 0 0 1 69.5 73.88c-2.357 0-4.593-.534-6.592-1.486v-.711a6.6 6.6 0 0 1 6.592-6.592 6.6 6.6 0 0 1 6.592 6.592v.71zM65.105 56.303a4.4 4.4 0 0 1 4.395-4.395 4.4 4.4 0 0 1 4.395 4.395 4.4 4.4 0 0 1-4.395 4.394 4.4 4.4 0 0 1-4.395-4.394zm15.158 13.173a11.013 11.013 0 0 0-4.62-6.896 8.761 8.761 0 0 0 2.646-6.277c0-4.847-3.942-8.79-8.789-8.79-4.847 0-8.79 3.943-8.79 8.79a8.761 8.761 0 0 0 2.646 6.277 11.013 11.013 0 0 0-4.62 6.896A15.335 15.335 0 0 1 54.12 58.5c0-8.481 6.9-15.38 15.381-15.38s15.38 6.899 15.38 15.38c0 4.294-1.769 8.183-4.617 10.976zm9.435 9.222a2.2 2.2 0 0 1 3.107 0 2.197 2.197 0 1 1-3.107 0zm10.71-18a2.2 2.2 0 0 1-2.197-2.198 2.2 2.2 0 0 1 2.197-2.197 2.2 2.2 0 0 1 2.197 2.197 2.2 2.2 0 0 1-2.197 2.197z"/>
    </g>
</svg>
