<svg xmlns="http://www.w3.org/2000/svg" width="61" height="39" viewBox="0 0 61 39">
    <g fill="#00C1B5" fill-rule="evenodd">
        <path d="M17.047 2.181L4.568 9.764a8.7 8.7 0 0 0 1.776 15.691L35.71 35.21a15 15 0 0 0 17.594-6.524l5.506-9.186c3.657-6.1 1.676-14.01-4.425-17.668C52.386.633 50.097 0 47.766 0h-22.93a15 15 0 0 0-7.79 2.181z" opacity=".109"/>
        <path fill-rule="nonzero" d="M49.012 19.012a2.994 2.994 0 0 0-2.817 1.992h-2.286a8.921 8.921 0 0 0-1.908-4.596l1.572-1.573a2.992 2.992 0 0 0 3.4-.583 2.992 2.992 0 0 0 0-4.226 2.992 2.992 0 0 0-4.225 0 2.993 2.993 0 0 0-.583 3.4L40.592 15a8.921 8.921 0 0 0-4.596-1.908v-2.286a2.993 2.993 0 0 0 1.992-2.817A2.992 2.992 0 0 0 35 5a2.992 2.992 0 0 0-2.988 2.988c0 1.299.832 2.406 1.992 2.817v2.286a8.921 8.921 0 0 0-4.596 1.908l-1.573-1.572a2.994 2.994 0 0 0-.583-3.4 2.992 2.992 0 0 0-4.226 0 2.992 2.992 0 0 0 0 4.225 2.993 2.993 0 0 0 3.4.583L28 16.408a8.921 8.921 0 0 0-1.908 4.596h-2.286a2.994 2.994 0 0 0-2.817-1.992A2.992 2.992 0 0 0 18 22a2.992 2.992 0 0 0 2.988 2.988 2.994 2.994 0 0 0 2.817-1.992h2.286a8.921 8.921 0 0 0 1.908 4.596l-1.572 1.573a2.993 2.993 0 0 0-3.4.583 2.992 2.992 0 0 0 0 4.226 2.992 2.992 0 0 0 4.225 0 2.993 2.993 0 0 0 .583-3.4L29.408 29a8.918 8.918 0 0 0 4.596 1.908v2.286a2.993 2.993 0 0 0-1.992 2.817A2.992 2.992 0 0 0 35 39a2.992 2.992 0 0 0 2.988-2.988 2.993 2.993 0 0 0-1.992-2.817v-2.286a8.917 8.917 0 0 0 4.596-1.908l1.573 1.572a2.994 2.994 0 0 0 .583 3.4 2.992 2.992 0 0 0 4.226 0 2.992 2.992 0 0 0 0-4.225 2.993 2.993 0 0 0-3.4-.583L42 27.593a8.923 8.923 0 0 0 1.908-4.597h2.286a2.994 2.994 0 0 0 2.817 1.992A2.992 2.992 0 0 0 52 22a2.992 2.992 0 0 0-2.988-2.988zm-4.855-7.577a.995.995 0 1 1 1.408 1.406.995.995 0 0 1-1.408-1.406zm-18.314 1.408a.997.997 0 1 1-1.408-1.41.997.997 0 0 1 1.408 1.41zm-4.855 10.153a.997.997 0 0 1-.996-.996c0-.55.447-.996.996-.996.55 0 .996.447.996.996 0 .55-.447.996-.996.996zm4.855 9.57a.995.995 0 1 1-1.408-1.41.997.997 0 0 1 1.408 1.41zM35 6.991c.55 0 .996.447.996.996 0 .55-.447.996-.996.996a.997.997 0 0 1-.996-.996c0-.549.447-.996.996-.996zm0 30.016a.997.997 0 0 1-.996-.996c0-.55.447-.996.996-.996.55 0 .996.447.996.996 0 .549-.447.996-.996.996zm2.988-8.709a6.93 6.93 0 0 1-2.988.674 6.93 6.93 0 0 1-2.988-.674v-.322A2.992 2.992 0 0 1 35 24.988a2.992 2.992 0 0 1 2.988 2.989v.322zm-4.98-7.295c0-1.099.893-1.992 1.992-1.992s1.992.893 1.992 1.992A1.994 1.994 0 0 1 35 22.996a1.994 1.994 0 0 1-1.992-1.992zm6.871 5.972a4.992 4.992 0 0 0-2.094-3.126 3.972 3.972 0 0 0 1.2-2.846A3.989 3.989 0 0 0 35 17.02a3.989 3.989 0 0 0-3.984 3.984c0 1.114.46 2.122 1.199 2.846a4.992 4.992 0 0 0-2.094 3.126A6.952 6.952 0 0 1 28.027 22 6.98 6.98 0 0 1 35 15.027 6.98 6.98 0 0 1 41.973 22c0 1.947-.803 3.71-2.094 4.976zm4.278 4.18a.997.997 0 1 1 1.408 1.412.997.997 0 0 1-1.408-1.411zm4.855-8.16a.997.997 0 0 1-.996-.996c0-.55.447-.996.996-.996.549 0 .996.447.996.996 0 .55-.447.996-.996.996z"/>
    </g>
</svg>
