<svg xmlns="http://www.w3.org/2000/svg" width="131" height="103" viewBox="0 0 131 103">
    <g fill="#00C1B5" fill-rule="evenodd">
        <path d="M60.769 101.807c-2.983 1.518-6.27 1.59-9.289.202L9.19 82.565c-1.773-.815-3.4-2.11-4.782-3.804-5.542-6.798-5.908-18.308-.817-25.708L36.038 5.886l.157-.223c5.183-7.285 13.808-7.58 19.264-.66l40.296 51.115c1.478 1.875 2.622 4.17 3.348 6.713 2.68 9.39-.849 19.903-7.881 23.482l-30.453 15.494z" opacity=".109"/>
        <g fill-rule="nonzero" transform="translate(39 11)">
            <path d="M14.44 31.684a4.84 4.84 0 0 0 0 6.887c1.918 1.893 5.041 1.893 6.979 0 13.282-13.106 34.899-13.106 48.18 0a4.95 4.95 0 0 0 6.962 0 4.84 4.84 0 0 0 0-6.887c-17.12-16.912-45.002-16.912-62.122 0z"/>
            <path d="M28.426 45.445c-1.901 1.948-1.901 5.118 0 7.085a4.825 4.825 0 0 0 6.918 0 14.83 14.83 0 0 1 21.33 0c.952.974 2.2 1.47 3.45 1.47s2.499-.496 3.45-1.47c1.901-1.948 1.901-5.118 0-7.066-9.678-9.949-25.452-9.949-35.148-.019z"/>
            <circle cx="45.5" cy="63.5" r="6.5"/>
            <path d="M90.562 18.526c-24.575-24.701-64.549-24.701-89.124 0-1.917 1.93-1.917 5.07 0 7.018 1.918 1.929 5.04 1.929 6.976 0 20.72-20.863 54.452-20.863 75.19 0A4.9 4.9 0 0 0 87.085 27a4.9 4.9 0 0 0 3.478-1.456c1.917-1.93 1.917-5.07 0-7.018z"/>
        </g>
    </g>
</svg>
