<svg xmlns="http://www.w3.org/2000/svg" width="58" height="48" viewBox="0 0 58 48">
    <g fill="#00C1B5" fill-rule="evenodd">
        <path d="M4.69 21.503c.441-1.72 1.655-3.267 3.43-4.37L32.985 1.67A11.058 11.058 0 0 1 36.526.272c5.19-1.1 10.558 1.239 11.99 5.224l9.13 25.398c.015.04.029.081.042.122 1.346 4.003-1.79 8.085-7.003 9.118l-38.5 7.629c-1.412.28-2.888.312-4.319.096-5.282-.799-8.72-4.735-7.68-8.79L4.69 21.502z" opacity=".109"/>
        <g fill-rule="nonzero">
            <path d="M55.1 19.734h-4.834V14.9c0-1.599-1.301-2.9-2.9-2.9H27.9c-1.599 0-2.9 1.301-2.9 2.9v27.2c0 1.599 1.301 2.9 2.9 2.9h27.2c1.599 0 2.9-1.301 2.9-2.9V22.635c0-1.6-1.301-2.9-2.9-2.9zM26.934 14.9c0-.533.433-.966.966-.966h19.465c.533 0 .967.433.967.966v.967H26.934V14.9zm.966 28.166a.968.968 0 0 1-.966-.966v-2.9h13.664v2.9c0 .339.059.664.166.966H27.9zm12.698-20.431v14.63H26.934V17.802h21.398v1.933h-4.834c-1.6 0-2.9 1.301-2.9 2.9zM56.066 42.1a.968.968 0 0 1-.966.966H43.498a.968.968 0 0 1-.967-.966v-.967h13.535v.967zm0-2.9H42.531V25.534h13.535V39.2zm0-15.598H42.531v-.967c0-.533.434-.967.967-.967H55.1c.533 0 .966.434.966.967v.967z"/>
            <path d="M38 20h-8a1 1 0 0 0-1 1v6a1 1 0 0 0 1 1h8a1 1 0 0 0 1-1v-6a1 1 0 0 0-1-1zm-1 6h-6v-4h6v4zM34 29h-4a1 1 0 0 0 0 2h4a1 1 0 0 0 0-2zM54 27h-8a1 1 0 0 0 0 2h8a1 1 0 0 0 0-2zM50 31h-4a1 1 0 0 0 0 2h4a1 1 0 0 0 0-2z"/>
        </g>
    </g>
</svg>
