<svg xmlns="http://www.w3.org/2000/svg" width="108" height="111" viewBox="0 0 108 111">
    <g fill="#00C1B5" fill-rule="evenodd">
        <path d="M7.116 49.726c.67-3.979 2.511-7.556 5.204-10.108L50.047 3.862c1.582-1.499 3.41-2.6 5.372-3.234 7.874-2.543 16.02 2.865 18.193 12.08l13.851 58.735c.022.093.044.187.064.28 2.041 9.258-2.716 18.698-10.625 21.087L18.489 110.45a12.701 12.701 0 0 1-6.554.223C3.921 108.827-1.297 99.725.282 90.345l6.834-40.619z" opacity=".109"/>
        <g fill-rule="nonzero">
            <path d="M101.232 34.047H89.953v-11.28A6.775 6.775 0 0 0 83.186 16H37.768A6.775 6.775 0 0 0 31 22.768v63.464A6.775 6.775 0 0 0 37.768 93h63.464A6.775 6.775 0 0 0 108 86.232V40.814a6.775 6.775 0 0 0-6.768-6.767zm-65.72-11.28a2.258 2.258 0 0 1 2.256-2.255h45.418a2.258 2.258 0 0 1 2.255 2.256v2.255h-49.93v-2.255zm2.256 65.721a2.258 2.258 0 0 1-2.256-2.256v-6.767h31.883v6.767c0 .791.137 1.55.388 2.256H37.768zm29.627-47.674v34.14H35.512V29.534h49.93v4.512h-11.28a6.775 6.775 0 0 0-6.767 6.767zm36.093 45.418a2.258 2.258 0 0 1-2.256 2.256h-27.07a2.258 2.258 0 0 1-2.256-2.256v-2.255h31.582v2.255zm0-6.767H71.906V47.582h31.582v31.883zm0-36.395H71.906v-2.256a2.258 2.258 0 0 1 2.256-2.255h27.07a2.258 2.258 0 0 1 2.256 2.255v2.256z"/>
            <path d="M59.8 34H42.2c-1.215 0-2.2 1.007-2.2 2.25v13.5c0 1.243.985 2.25 2.2 2.25h17.6c1.215 0 2.2-1.007 2.2-2.25v-13.5c0-1.243-.985-2.25-2.2-2.25zm-2.2 13.5H44.4v-9h13.2v9zM51.667 57h-9.334C41.045 57 40 58.12 40 59.5s1.045 2.5 2.333 2.5h9.334C52.955 62 54 60.88 54 59.5S52.955 57 51.667 57zM95.8 52H78.2c-1.215 0-2.2 1.12-2.2 2.5s.985 2.5 2.2 2.5h17.6c1.215 0 2.2-1.12 2.2-2.5s-.985-2.5-2.2-2.5zM87.667 61h-9.334C77.045 61 76 62.12 76 63.5s1.045 2.5 2.333 2.5h9.334C88.955 66 90 64.88 90 63.5S88.955 61 87.667 61z"/>
        </g>
    </g>
</svg>
