<?xml version="1.0" encoding="UTF-8"?>
<svg width="32px" height="35px" viewBox="0 0 32 35" version="1.1" xmlns="http://www.w3.org/2000/svg" xmlns:xlink="http://www.w3.org/1999/xlink">
    <!-- Generator: Sketch 52.6 (67491) - http://www.bohemiancoding.com/sketch -->
    <title>Group 5</title>
    <desc>Created with Sketch.</desc>
    <defs>
        <polygon id="path-1" points="0 28 26.8591546 28 26.8591546 0 0 0"></polygon>
    </defs>
    <g id="Page-Flujo-bien" stroke="none" stroke-width="1" fill="none" fill-rule="evenodd">
        <g id="Detalle-flex-v2" transform="translate(-139.000000, -594.000000)">
            <g id="Group-5" transform="translate(139.000000, 594.000000)">
                <g id="Group-10" fill="#00C1B5" opacity="0.109207589">
                    <g id="Group-2" transform="translate(0.000000, 0.060631)">
                        <path d="M2.32764683,15.5231748 C2.54662403,14.2908364 3.14904013,13.1828081 4.02980783,12.392378 L16.3704591,1.31746776 C16.8878351,0.853157345 17.4861128,0.512181945 18.1278544,0.315878359 C20.7034625,-0.471979382 23.3677121,1.20327277 24.0786225,4.05765877 L28.6094895,22.2496039 C28.616689,22.2785105 28.6236695,22.3074836 28.6304303,22.3365201 C29.2980265,25.2037231 27.7419017,28.1278217 25.1547284,28.8676769 L6.04764451,34.3317392 C5.34678335,34.5321648 4.61427358,34.5557518 3.90409426,34.4007622 C1.28252365,33.8286301 -0.424172716,31.0095954 0.0920812318,28.104272 L2.32764683,15.5231748 Z" id="Path-21"></path>
                    </g>
                </g>
                <g id="Group-17" transform="translate(5.000000, 4.000000)">
                    <path d="M19.8569969,8.7290549 C16.3071928,5.22823137 10.5520175,5.22823137 7.0022134,8.7290549 C10.5520175,5.22823137 16.3071928,5.22823137 19.8569969,8.7290549 Z" id="Stroke-1" stroke="#00C1B5" stroke-width="1.65219533"></path>
                    <path d="M18.0856299,10.4760353 C15.5184031,7.94423137 11.3409186,7.94423137 8.77369175,10.4760353 C11.3409186,7.94423137 15.5184031,7.94423137 18.0856299,10.4760353 Z" id="Stroke-3" stroke="#00C1B5" stroke-width="1.65219533"></path>
                    <path d="M16.3142072,12.2229882 C14.7237124,10.6544392 12.1356093,10.6544392 10.5451144,12.2229882 C12.1356093,10.6544392 14.7237124,10.6544392 16.3142072,12.2229882 Z" id="Stroke-5" stroke="#00C1B5" stroke-width="1.65219533"></path>
                    <path d="M13.4293546,13.4554549 C13.6832103,13.4546314 13.9217567,13.5065137 14.1307979,13.6775333 L13.429633,14.3690235 L12.728468,13.6775333 C12.9375093,13.5065137 13.175499,13.4546314 13.4293546,13.4554549 Z" id="Stroke-7" stroke="#00C1B5" stroke-width="1.65219533"></path>
                    <path d="M13.429633,18.5510431 C18.3862206,18.5510431 22.4172928,14.5755922 22.4172928,9.68739608 C22.4172928,4.77806275 18.3625608,0.82347451 13.429633,0.82347451 C8.47304536,0.82347451 4.4419732,4.79892549 4.4419732,9.68739608 C4.4419732,14.5964549 8.49670515,18.5510431 13.429633,18.5510431 Z" id="Stroke-9" stroke="#00C1B5" stroke-width="1.65219533"></path>
                    <mask id="mask-2" fill="white">
                        <use xlink:href="#path-1"></use>
                    </mask>
                    <g id="Clip-12"></g>
                    <polygon id="Stroke-11" stroke="#00C1B5" stroke-width="1.65219533" mask="url(#mask-2)" points="0.835051546 27.1764706 4.17525773 27.1764706 4.17525773 23.8823529 0.835051546 23.8823529"></polygon>
                    <polygon id="Stroke-13" stroke="#00C1B5" stroke-width="1.65219533" mask="url(#mask-2)" points="11.7594742 27.1764706 15.0996804 27.1764706 15.0996804 23.8823529 11.7594742 23.8823529"></polygon>
                    <polygon id="Stroke-14" stroke="#00C1B5" stroke-width="1.65219533" mask="url(#mask-2)" points="22.6838969 27.1764706 26.0241031 27.1764706 26.0241031 23.8823529 22.6838969 23.8823529"></polygon>
                    <path d="M2.50515464,23.8823529 L2.50515464,22.2352941 C2.50515464,21.628902 3.00368041,21.1372549 3.6185567,21.1372549 L23.2405979,21.1372549 C23.8554742,21.1372549 24.354,21.628902 24.354,22.2352941 L24.354,23.8823529 L24.354,22.2352941 C24.354,21.628902 23.8554742,21.1372549 23.2405979,21.1372549 L3.6185567,21.1372549 C3.00368041,21.1372549 2.50515464,21.628902 2.50515464,22.2352941 L2.50515464,23.8823529 Z" id="Stroke-15" stroke="#00C1B5" stroke-width="1.65219533" mask="url(#mask-2)"></path>
                    <path d="M13.4295773,18.5468157 L13.4295773,23.8824627 L13.4295773,18.5468157 Z" id="Stroke-16" stroke="#00C1B5" stroke-width="1.65219533" mask="url(#mask-2)"></path>
                </g>
            </g>
        </g>
    </g>
</svg>