<svg xmlns="http://www.w3.org/2000/svg" width="62" height="40" viewBox="0 0 62 40">
    <g fill="#00C1B5" fill-rule="evenodd">
        <path d="M17.547 2.181L5.068 9.764a8.7 8.7 0 0 0 1.776 15.691L36.21 35.21a15 15 0 0 0 17.594-6.524l5.506-9.186c3.657-6.1 1.676-14.01-4.425-17.668C52.886.633 50.597 0 48.266 0h-22.93a15 15 0 0 0-7.79 2.181z" opacity=".109"/>
        <path fill-rule="nonzero" d="M52.869 15.41c-.032.165-.034.341-.095.499-.374.93-1.078 1.704-1.595 2.562-.666 1.097-6.325-1.266-5.594-2.73.275-.541 1.346-2.035 1.429-2.635.075-.54-.615-.96-1.253-1.01-1.679-.14-9.835-.141-11.514 0-.639.05-1.33.471-1.257 1.01.082.598 1.153 2.093 1.427 2.635.73 1.465-4.932 3.829-5.598 2.73-.514-.86-1.216-1.63-1.59-2.562-.065-.158-.065-.335-.099-.5-.828-3.825 2.373-7.725 7.19-8.123a85.345 85.345 0 0 1 5.531-.276V7c.05.002.098.005.149.005.05.002.1-.003.15-.005v.01a86.84 86.84 0 0 1 5.533.275c4.815.401 8.017 4.3 7.186 8.124zM39.999 40c-5.881 0-10.664-4.93-10.664-10.983 0-6.059 4.785-10.985 10.664-10.985 5.877 0 10.66 4.926 10.661 10.98v.012C50.658 35.073 45.876 40 40 40zm2.837-6.71c-.934.102-1.89.155-2.837.155-.947 0-1.904-.053-2.837-.155.56 3.4 1.744 5.546 2.837 5.546 1.09 0 2.274-2.145 2.837-5.546zm.163-1.184c.107-.96.169-1.99.169-3.089 0-1.1-.06-2.136-.17-3.092a25.48 25.48 0 0 0-3-.175c-1.067 0-2.072.062-3.001.175a27.872 27.872 0 0 0-.168 3.092c0 1.1.06 2.135.168 3.089.93.11 1.934.176 3 .176 1.069-.001 2.074-.065 3.002-.176zm-12.533-3.089c0 1.123 2.08 2.342 5.382 2.923a28.998 28.998 0 0 1-.15-2.923c0-.976.052-1.961.15-2.925-3.302.576-5.382 1.796-5.382 2.925zm6.696-4.279a26.51 26.51 0 0 1 2.837-.156c.945 0 1.904.056 2.837.156-.561-3.4-1.745-5.543-2.837-5.543-1.093 0-2.276 2.144-2.837 5.543zm7.134 4.279c0 .973-.05 1.961-.15 2.923 3.299-.578 5.379-1.794 5.383-2.92v-.003-.004c-.004-1.125-2.082-2.34-5.383-2.92.102.962.15 1.945.15 2.924zm-2.093-9.554c.858 1.26 1.46 3.233 1.791 5.437 2.136.34 4.054.962 5.276 1.845-.829-3.594-3.578-6.427-7.067-7.282zm-11.477 7.279c1.223-.884 3.137-1.506 5.273-1.847.334-2.202.937-4.172 1.793-5.435-3.488.857-6.236 3.69-7.066 7.282zm7.066 11.823c-.856-1.26-1.459-3.232-1.793-5.434-2.136-.34-4.05-.963-5.273-1.846.83 3.593 3.578 6.427 7.066 7.28zm11.478-7.278c-1.222.885-3.14 1.505-5.276 1.845-.33 2.203-.934 4.175-1.79 5.437 3.488-.858 6.237-3.691 7.066-7.282z"/>
    </g>
</svg>
