<svg xmlns="http://www.w3.org/2000/svg" width="104" height="90" viewBox="0 0 104 90">
    <g fill="#00C1B5" fill-rule="evenodd">
        <path d="M13.994 66.388c-2.708-2.007-4.529-4.784-5.144-7.85L.23 15.596c-.362-1.8-.296-3.647.192-5.424C2.382 3.04 10.552-1.348 18.672.374l51.749 10.972.246.054c8.086 1.84 12.941 9.09 10.846 16.193L66.035 80.048c-.568 1.924-1.62 3.711-3.078 5.231-5.385 5.609-14.927 6.322-21.312 1.592l-27.65-20.483z" opacity=".109"/>
        <path fill-rule="nonzero" d="M66 3C45.128 3 28 20.128 28 41s17.128 38 38 38 38-17.128 38-38S86.872 3 66 3zM42.414 57.767A28.728 28.728 0 0 1 37.054 41c0-15.96 12.986-28.945 28.946-28.945a28.728 28.728 0 0 1 16.767 5.36c.102.073.194.155.28.24L42.656 58.048a2.258 2.258 0 0 1-.242-.28zM66 69.945a28.728 28.728 0 0 1-16.767-5.36 2.246 2.246 0 0 1-.28-.24l40.391-40.391c.086.086.169.177.241.28A28.727 28.727 0 0 1 94.945 41c0 15.96-12.985 28.945-28.945 28.945z"/>
    </g>
</svg>
