<svg xmlns="http://www.w3.org/2000/svg" width="52" height="51" viewBox="0 0 52 51">
    <g fill="#00C1B5" fill-rule="evenodd">
        <path d="M8.874 37.62c-1.717-1.137-2.872-2.711-3.262-4.448L.146 8.837a5.953 5.953 0 0 1 .122-3.073C1.51 1.722 6.692-.764 11.84.212l32.816 6.217.156.03c5.128 1.044 8.207 5.152 6.878 9.177L41.876 45.36c-.36 1.09-1.027 2.104-1.952 2.965-3.415 3.178-9.466 3.582-13.515.902L8.874 37.62z" opacity=".109"/>
        <path fill-rule="nonzero" d="M34.5 13C25.437 13 18 20.437 18 29.5 18 38.563 25.437 46 34.5 46 43.563 46 51 38.563 51 29.5 51 20.437 43.563 13 34.5 13zM24.259 36.78a12.474 12.474 0 0 1-2.327-7.28c0-6.93 5.638-12.568 12.568-12.568 2.626 0 5.144.804 7.28 2.327a.975.975 0 0 1 .122.105L24.364 36.902a.98.98 0 0 1-.105-.122zM34.5 42.068c-2.626 0-5.144-.804-7.28-2.327a.975.975 0 0 1-.122-.105l17.538-17.538a.962.962 0 0 1 .105.122 12.473 12.473 0 0 1 2.327 7.28c0 6.93-5.638 12.568-12.568 12.568z"/>
    </g>
</svg>
