<svg xmlns="http://www.w3.org/2000/svg" width="64" height="42" viewBox="0 0 64 42">
    <g fill="#00C1B5" fill-rule="evenodd">
        <path d="M17.047 2.181L4.568 9.764a8.7 8.7 0 0 0 1.776 15.691L35.71 35.21a15 15 0 0 0 17.594-6.524l5.506-9.186c3.657-6.1 1.676-14.01-4.425-17.668C52.386.633 50.097 0 47.766 0h-22.93a15 15 0 0 0-7.79 2.181z" opacity=".109"/>
        <g fill-rule="nonzero">
            <path d="M50.406 19.594a2.029 2.029 0 0 0-2.869 0l-5.784 5.783A3.867 3.867 0 0 0 37 29.137 3.867 3.867 0 0 0 40.861 33a3.869 3.869 0 0 0 3.76-4.755l5.785-5.783a2.028 2.028 0 0 0 0-2.868z"/>
            <path d="M57.415 11.595c-8.774-8.793-23.055-8.793-31.834 0-7.577 7.598-8.752 19.582-2.792 28.495a2.043 2.043 0 0 0 2.839.562 2.053 2.053 0 0 0 .56-2.845 18.35 18.35 0 0 1-2.981-8.156h1.923c1.13 0 2.047-.918 2.047-2.05 0-1.133-.917-2.05-2.047-2.05H23.2a18.49 18.49 0 0 1 3.886-9.495l1.392 1.395c.4.4.924.601 1.447.601.524 0 1.047-.2 1.447-.6.799-.801.799-2.1 0-2.9l-1.398-1.402a18.32 18.32 0 0 1 9.566-3.946v1.936c0 1.133.916 2.051 2.046 2.051s2.046-.918 2.046-2.05V9.222a18.307 18.307 0 0 1 9.393 3.928l-1.397 1.4c-.8.801-.8 2.1 0 2.9.4.4.923.601 1.447.601.523 0 1.047-.2 1.447-.6l1.39-1.395A18.48 18.48 0 0 1 59.8 25.55h-1.93c-1.13 0-2.046.919-2.046 2.051 0 1.133.916 2.05 2.046 2.05h1.924a18.345 18.345 0 0 1-2.982 8.156A2.053 2.053 0 0 0 58.508 41c.66 0 1.307-.319 1.702-.91 5.962-8.914 4.786-20.898-2.795-28.495z"/>
            <path d="M50.002 38H31.997A1.999 1.999 0 0 0 30 40c0 1.105.894 2 1.997 2h18.006A1.999 1.999 0 0 0 52 40c0-1.104-.894-2-1.998-2z"/>
        </g>
    </g>
</svg>
