<?xml version="1.0" encoding="UTF-8"?>
<svg width="63px" height="25px" viewBox="0 0 265 46" version="1.1" xmlns="http://www.w3.org/2000/svg" xmlns:xlink="http://www.w3.org/1999/xlink">
    <title>logoNuevo</title>
    <g id="afizzionados" stroke="none" stroke-width="1" fill="none" fill-rule="evenodd">
        <g id="logoNuevo">
            <path d="M152.073333,14.7375746 C154.921111,14.7375746 156.497778,16.5387674 156.497778,19.8190855 L156.497778,32.9403579 L163,32.9403579 L163,17.695825 C163,12.2445328 159.956667,9 154.86,9 C152.018332,9.02816383 149.379923,10.4432874 147.832222,12.7693837 L147.465556,13.222664 L147.465556,9.44135189 L141,9.44135189 L141,33 L147.551111,33 L147.551111,19.8787276 C147.514444,16.610338 149.176667,14.7375746 152.073333,14.7375746 Z" id="Path" fill="#575756" fill-rule="nonzero"></path>
            <path d="M166,26.631947 C166,31.6978136 170.099228,33.9915595 174.162073,33.9915595 C176.899349,34.1095815 179.545703,32.9850041 181.37817,30.9250543 L181.729879,30.5325416 L181.729879,33.5254507 L188,33.5254507 L188,19.4195267 C188,16.0218389 187.13892,13.4337085 185.428886,11.7041996 C183.718853,9.97469065 180.941566,9.005675 177.339581,9.005675 C174.175418,8.93218188 171.034877,9.57331031 168.146637,10.8823762 L169.747519,15.7887845 C171.849672,14.959644 174.088819,14.5433482 176.345094,14.5621825 C179.850055,14.5621825 181.77839,16.2426273 181.77839,19.2723345 L181.77839,19.9837637 L181.511577,19.8856355 C179.618492,19.2120441 177.624178,18.8758727 175.61742,18.8920878 C169.553473,18.8920878 166,21.6764746 166,26.5338188 L166,26.631947 Z M172.282249,26.2639664 C172.282249,23.9702205 174.089305,22.6577562 177.254686,22.6577562 C178.798819,22.6439644 180.328272,22.9617003 181.742007,23.5899738 L181.863286,23.6513039 L181.863286,25.0250983 C181.863286,27.6868248 179.558986,29.55126 176.248071,29.55126 C173.822492,29.55126 172.282249,28.3246579 172.282249,26.3620945 L172.282249,26.2639664 Z" id="Shape" fill="#575756" fill-rule="nonzero"></path>
            <path d="M216,33.5412031 L216,1 L209.554594,1 L209.554594,13.2722006 L209.205868,12.8506824 C207.449595,10.5584459 204.70667,9.24305266 201.822511,9.30992975 C196.627706,9.30992975 191,13.1517668 191,21.6062171 L191,21.7025641 C191,27.808556 194.703704,33.9988515 201.822511,33.9988515 C204.769632,34.046619 207.541839,32.601783 209.193843,30.1570144 L209.554594,29.6632359 L209.554594,33.5412031 L216,33.5412031 Z M203.590188,28.5793321 C200.102934,28.5793321 197.481481,25.6287048 197.481481,21.7025641 L197.481481,21.6062171 C197.481481,17.6198595 200.042809,14.7294491 203.590188,14.7294491 C207.137566,14.7294491 209.602694,17.6800764 209.602694,21.6062171 L209.602694,21.7025641 C209.650794,25.6287048 207.041366,28.5793321 203.590188,28.5793321 L203.590188,28.5793321 Z" id="Shape" fill="#575756" fill-rule="nonzero"></path>
            <path d="M265,26.240958 L265,26.1554252 C265,21.85435 261.336055,20.2414467 257.898869,19.0684262 L257.13505,18.799609 C254.748116,17.9809384 252.886307,17.3333333 252.886307,15.9403715 L252.886307,15.8548387 C252.886307,14.9261975 253.590452,13.9486804 255.595477,13.9486804 C257.870645,14.1477406 260.065195,14.9064632 261.992462,16.1603128 L264.379397,11.700391 C261.788867,9.9915014 258.784093,9.05632517 255.702889,9 C251.430276,9 247.133794,11.3460411 247.133794,16.5757576 L247.133794,16.6735093 C247.133794,21.1334311 250.499372,22.7829912 254.139447,23.8460411 L255.058417,24.1270772 C257.445352,24.8357771 259.259422,25.3489736 259.259422,26.888563 L259.259422,27.0107527 C259.259422,27.7683284 258.853643,29.0513196 256.192211,29.0513196 C253.469172,28.8871508 250.855673,27.8959734 248.685302,26.2043011 L246,30.4442815 C248.863044,32.7283107 252.383667,33.9784962 256.013191,34 C261.622487,33.9633431 265,31.0796676 265,26.240958 Z" id="Path" fill="#575756" fill-rule="nonzero"></path>
            <path d="M0,26.6316227 C0,31.6974058 4.09922822,33.9911139 8.16207277,33.9911139 C10.8964145,34.1124052 13.5403889,32.9869662 15.3660419,30.9246593 L15.7298787,30.5321531 L15.7298787,33.5250128 L22,33.5250128 L22,19.4193214 C22,16.0216896 21.1389195,13.4336019 19.4167585,11.7041214 C17.6945976,9.97464099 14.9294377,9.00564132 11.339581,9.00564132 C8.1715258,8.93238147 5.02708783,9.57344907 2.13450937,10.8823116 L3.7353914,15.788639 C5.84141933,14.9582677 8.08477163,14.5419622 10.3450937,14.5620572 C13.8379272,14.5620572 15.7662624,16.2424743 15.7662624,19.2721315 L15.7662624,19.983549 L15.4994487,19.8854225 C13.6105697,19.2117931 11.6202265,18.875605 9.61742007,18.8918912 C3.55347299,18.8918912 0,21.676232 0,26.5334962 L0,26.6316227 Z M6.27012128,26.2636482 C6.27012128,23.9699401 8.0893054,22.6574975 11.2546858,22.6574975 C12.7988189,22.6437059 14.328272,22.9614366 15.7420066,23.5896997 L15.8632856,23.6510288 L15.8632856,25.0248005 C15.8632856,27.6864831 13.5589857,29.5508876 10.2480706,29.5508876 C7.82249173,29.5508876 6.27012128,28.3243057 6.27012128,26.3617747 L6.27012128,26.2636482 Z" id="Shape" fill="#575756" fill-rule="nonzero"></path>
            <path d="M38.9512195,9.25423391 L33.3292683,9.25423391 L33.3292683,8.22810777 C33.1900435,7.46897204 33.425709,6.68968584 33.9634131,6.13115128 C34.5011173,5.57261673 35.2760966,5.30210612 36.0487805,5.40324286 C37.0544708,5.40510115 38.0524902,5.57656344 39,5.9102699 L39,0.646846401 C37.4651833,0.196008984 35.8688678,-0.0157715418 34.2682927,0.0190986444 C32.2680088,-0.123609419 30.2940605,0.537888808 28.7926829,1.85405362 C27.4040994,3.43908595 26.71456,5.50857001 26.8780488,7.60036001 L26.8780488,9.24216183 L24,9.24216183 L24,14.5900898 L26.8780488,14.5900898 L26.8780488,33 L33.4390244,33 L33.4390244,14.5900898 L38.9756098,14.5900898 L38.9512195,9.25423391 Z" id="Path" fill="#575756" fill-rule="nonzero"></path>
            <polygon id="Path" fill="#A4A4A4" fill-rule="nonzero" points="134 19 136 22 134 19"></polygon>
            <path d="M119.498397,19.42 C119.502671,19.4732477 119.502671,19.5267523 119.498397,19.58 C119.502671,19.5267523 119.502671,19.4732477 119.498397,19.42 Z" id="Path" fill="#A4A4A4" fill-rule="nonzero"></path>
            <path d="M119.5,18.55 C119.5,18.55 119.5,18.48 119.5,18.45 C119.5,18.45 119.5,18.55 119.5,18.55 Z" id="Path" fill="#A4A4A4" fill-rule="nonzero"></path>
            <path d="M119.5,19.46 L119.5,19.54 L119.5,19.46 Z" id="Path" fill="#A4A4A4" fill-rule="nonzero"></path>
            <path d="M119.947651,22.0122755 C121.489741,22.560936 123.119179,22.8193458 124.754401,22.7745696 C125.072002,24.1882531 125.804945,25.4733469 126.858119,26.4630894 C127.830281,26.8236627 128.855394,27.0189572 129.891387,27.0409575 C130.450674,27.0633206 131.010844,27.0427693 131.567022,26.9794822 C132.126732,26.9223241 132.679672,26.8111561 133.218196,26.6475154 C132.709636,26.9110066 132.177214,27.1250922 131.628177,27.2868588 C131.076437,27.4613724 130.512146,27.5929087 129.94031,27.6803009 C128.945188,27.8423344 127.932355,27.8630284 126.931505,27.7417763 C127.776732,27.9152557 128.637334,28.0017673 129.5,28 C131.183017,27.9993993 132.848064,27.6520902 134.392364,26.9794822 L133.585123,26.4753845 C134.571406,25.2323959 135.359514,23.8428627 135.921229,22.3565374 C137.347421,22.3868211 138.772136,22.2464916 140.165357,21.9385051 C141.367075,19.9707762 142.002173,17.7064838 142,15.39753 C142,15.2376942 142,15.0655633 142,14.8934323 C141.434052,13.7614767 140.686059,12.7312275 139.786198,11.844256 C140.038082,10.9073331 140.19785,9.94781393 140.263204,8.97950562 C139.867695,8.28192677 139.413492,7.61967262 138.905572,7 C138.905572,7.36885198 138.905572,7.74999902 138.905572,8.118851 C138.90829,9.429354 138.706049,10.7321401 138.306257,11.9795017 L139.358116,11.8688461 L138.135025,12.3237636 L138.135025,12.3237636 L139.358116,11.8688461 L137.890406,13.0983527 C137.028446,15.1240393 135.653742,16.8874633 133.903127,18.2131001 L135.505377,21.8278495 L131.836102,19.491787 C130.446326,20.1788574 128.940007,20.5959978 127.396279,20.7212936 L125.035712,22.3196522 L126.356652,20.7581788 L126.356652,20.7581788 L125.023482,22.3073571 L125.794029,20.7458837 C123.413434,20.6188012 121.119994,19.8033482 119.189334,18.3975261 C119.276177,19.5347547 119.481141,20.6597293 119.80088,21.7540791 C119.73419,21.6358733 119.676933,21.5125359 119.629647,21.3852272 C118.932257,20.4155047 118.34171,19.3725041 117.868395,18.2745755 C117.636008,17.7581827 117.440313,17.2294949 117.256849,16.700807 L117,16.4057255 C117.202431,18.9413384 118.166391,21.3553012 119.764187,23.3278476 L119.947651,22.0122755 Z" id="Path" fill="#999999" fill-rule="nonzero"></path>
            <polygon id="Path" fill="#575756" fill-rule="nonzero" points="135.542396 13.1068592 131.775236 10.332852 130.987887 6 130.588156 10.3451264 126.905787 13.0577617 122 12.5913357 126.51817 14.2115523 127.911171 18.53213 126.493943 21.4411552 125.730821 23 127.051144 21.4534296 128.855989 19.3422383 133.45895 19.3422383 133.676985 19.5877256 136.172275 22.5703971 134.585464 18.9617329 134.452221 18.6303249 135.833109 14.2974729 138.837147 13.1068592 140 12.6527076 138.958277 12.7631769"></polygon>
            <path d="M130,3 C122.820298,3 117,8.82029825 117,16 C117,23.1797017 122.820298,29 130,29 C137.179702,29 143,23.1797017 143,16 C142.993382,8.82304121 137.176959,3.00661776 130,3 Z M140.599261,9.74607572 C140.535121,10.6914367 140.378321,11.6282169 140.131117,12.5429363 C140.992925,13.3980351 141.710445,14.3871596 142.255776,15.4718375 C142.255776,15.6398892 142.255776,15.8079409 142.255776,15.9639889 C142.257909,18.2182243 141.63461,20.4288568 140.455217,22.3499538 C139.087879,22.6506415 137.689632,22.7876455 136.289935,22.7580794 C135.738656,24.2091813 134.96519,25.5657849 133.99723,26.7793167 L134.789474,27.2714681 C133.273863,27.9281365 131.63975,28.267215 129.987996,28.2678014 C129.14136,28.2695268 128.296745,28.1850654 127.467221,28.0156971 C128.449477,28.1340758 129.443494,28.1138722 130.420129,27.9556787 C130.981342,27.8703575 131.53515,27.7419384 132.076639,27.5715605 C132.615477,27.4136275 133.138007,27.2046154 133.637119,26.9473684 C133.108599,27.1071312 132.565932,27.2156646 132.01662,27.2714681 C131.470775,27.3332554 130.921012,27.3533198 130.372114,27.3314866 C129.355369,27.3100077 128.3493,27.1193413 127.395199,26.767313 C126.36159,25.8010258 125.642263,24.5463865 125.330563,23.166205 C123.72572,23.20992 122.126553,22.9576341 120.613112,22.421976 L120.44506,23.6823638 C118.876947,21.7565635 117.930896,19.3998076 117.732225,16.9242844 L117.732225,16.312096 C117.804247,16.5641736 117.888273,16.8162512 117.960295,17.0683287 L117.960295,17.212373 C118.140351,17.7285319 118.33241,18.2446907 118.56048,18.7488458 C119.025001,19.8207554 119.604578,20.8390386 120.289012,21.7857802 C120.048133,21.2860339 119.835728,20.7730561 119.652816,20.2493075 L119.652816,20.1532779 L119.448753,19.5170822 C119.453883,19.4531652 119.453883,19.38894 119.448753,19.3250231 L119.20868,18.6048015 C119.20868,18.6048015 119.20868,18.6048015 119.20868,18.5327793 C119.20868,18.4607572 119.20868,18.388735 119.20868,18.3167128 C119.02445,17.5264744 118.896093,16.7242443 118.824561,15.9159741 L118.824561,15.9159741 L118.824561,15.9159741 C119.504571,14.6005472 120.424677,13.4239513 121.537396,12.4469067 C121.121797,11.3249524 120.847601,10.1555891 120.721145,8.96583564 C121.319215,8.07781366 122.042976,7.28127246 122.869806,6.60110803 C123.309731,6.24921621 123.77073,5.92451241 124.250231,5.62880886 C124.734194,5.33478023 125.239805,5.07796173 125.762696,4.86057248 C125.202803,4.98253734 124.653037,5.14706583 124.11819,5.35272392 C123.818098,5.46075716 123.518006,5.59279778 123.217913,5.72483841 C124.19445,5.06522159 125.262025,4.55165331 126.386888,4.20036934 C126.278855,4.38042475 126.218837,4.52446907 126.386888,4.52446907 C127.939515,4.60524313 129.457361,5.01436606 130.840259,5.72483841 C131.926763,5.02090658 133.157349,4.56969177 134.441367,4.40443213 C136.296376,5.13195327 137.947844,6.29745299 139.254848,7.80147738 C139.755789,8.39453419 140.205538,9.02900168 140.599261,9.69806094 L140.599261,9.74607572 Z" id="Shape" fill="#575756" fill-rule="nonzero"></path>
            <path d="M117.395,16.125 L117.395,16.635 L117.605,16.875 L117.605,16.755 C117.525,16.545 117.455,16.335 117.395,16.125 Z" id="Path" fill="#FFFFFF" fill-rule="nonzero"></path>
            <path d="M133.651869,19.2675585 L133.441589,19 L129.002336,19 L127.261682,21.3010033 L127.261682,21.3010033 L126,23 L128.254673,21.2608696 C129.729149,21.1245386 131.167896,20.6706596 132.495327,19.9230769 L136,22.4648829 L133.581776,19.2140468 L133.651869,19.2675585 Z" id="Path" fill="#FFFFFF" fill-rule="nonzero"></path>
            <path d="M125.776869,21.0660377 L127.212033,18.1913747 L125.801402,13.9218329 L121.226051,12.3814016 L126.132593,12.8423181 L129.8125,10.1617251 L130.21729,5.88005391 L131.014603,10.1495957 L134.829439,12.8908356 L138.288551,12.5512129 C138.727031,11.3266343 138.96714,10.0412529 139,8.7425876 C139,8.3787062 139,8.00269542 139,7.63881402 C137.633241,6.10454432 135.906227,4.92579494 133.970794,4.20619946 C132.65868,4.37318947 131.401167,4.8291288 130.290888,5.54043127 C128.877731,4.8225198 127.326671,4.40911308 125.74007,4.32749326 C125.629673,4.32749326 125.74007,4.1819407 125.74007,4 C124.587019,4.35008772 123.491914,4.86496485 122.489486,5.52830189 C122.796145,5.39487871 123.102804,5.26145553 123.409463,5.15229111 C123.956013,4.94447965 124.517808,4.77822843 125.089953,4.65498652 C124.555621,4.87465197 124.038945,5.13415953 123.544393,5.43126685 C123.059248,5.7226369 122.592281,6.04262269 122.146028,6.38948787 C121.306426,7.03510654 120.563122,7.79461044 119.938084,8.64555256 C120.067307,9.84776353 120.347503,11.0293708 120.772196,12.1630728 C119.635129,13.1503476 118.694889,14.3392633 118,15.6684636 L118,15.6684636 L118,15.6684636 C118.073097,16.4851969 118.204262,17.2958269 118.392523,18.0943396 C118.392523,18.1671159 118.392523,18.2398922 118.392523,18.3126685 C118.392523,18.3854447 118.392523,18.3854447 118.392523,18.4339623 L118.576519,19.1132075 C118.581761,19.1777937 118.581761,19.2426914 118.576519,19.3072776 L118.797313,19.9865229 L118.797313,20.083558 C118.984227,20.6127906 119.20128,21.1311395 119.44743,21.6361186 C119.494853,21.7617117 119.552276,21.8833871 119.619159,22 C119.290184,20.9212807 119.076401,19.81145 118.981308,18.6886792 C120.958832,20.1283355 123.323743,20.955676 125.776869,21.0660377 L125.776869,21.0660377 Z" id="Path" fill="#FFFFFF" fill-rule="nonzero"></path>
            <path d="M137.995585,12.4401544 L137.995585,12.4401544 L135.258278,13.5984556 L134,17.6872587 L134.13245,18 C135.695049,16.7373843 136.916358,15.0684214 137.675497,13.1583012 L139,12 L137.995585,12.4401544 Z" id="Path" fill="#FFFFFF" fill-rule="nonzero"></path>
            <path d="M105,7.25918249 L105.75004,7.01562834 L107.854992,6.40674297 L111.133395,5.40817096 C112.343137,5.01848432 113.819023,4.58008686 115.391688,4.19040022 C116.964354,3.80071358 118.670091,3.31360528 120.496802,2.97262948 C122.41903,2.54814775 124.366873,2.25118468 126.327761,2.08365683 C128.440503,1.90940611 130.566705,2.00762311 132.654715,2.37592181 C133.739957,2.59520643 134.795702,2.94264406 135.800045,3.41102694 C136.821372,3.8782277 137.764175,4.50271686 138.594551,5.26203847 C139.501126,6.05065597 140.277031,6.97969868 140.893061,8.01420035 C141.521975,9.02428037 142.025745,10.1080309 142.393142,11.2412928 L142.502019,11.6431572 L142.586701,12.0450215 C142.586701,12.3129311 142.695578,12.5808406 142.73187,12.8609279 C142.768162,13.1410152 142.828649,13.4089247 142.864942,13.6768343 C142.901234,13.9447439 142.949624,14.2126534 142.961721,14.4927407 C143.045041,15.5991587 142.992219,16.7117013 142.804455,17.8050771 C142.464159,19.87649 141.634369,21.8352592 140.38497,23.5164219 C138.433702,26.1477035 136.247024,28.5934695 133.85236,30.8230464 C132.836176,31.6876636 131.916772,32.5644585 131.166731,33.1611662 C130.416691,33.7578738 129.823917,34.2206267 129.424702,34.5250694 L128.795636,35 C128.795636,35 129.630358,34.293693 131.069952,33.0272114 C131.771603,32.3817929 132.63052,31.6145973 133.574119,30.6769139 C134.637092,29.6333714 135.646521,28.5359533 136.598475,27.3889329 C137.723255,26.0258877 138.757799,24.5898809 139.695416,23.0902021 C140.923923,21.4744115 141.753219,19.5877648 142.114901,17.5858784 C142.294697,16.5818112 142.347539,15.5588754 142.272168,14.5414515 C142.272168,14.273542 142.272168,14.0178101 142.175388,13.7499005 C142.078609,13.481991 142.090706,13.2384368 142.054414,12.982705 C142.018122,12.7269731 141.945537,12.4468859 141.897148,12.191154 L141.812466,11.7892897 L141.715686,11.4117807 C141.354629,10.351953 140.871472,9.33835401 140.276093,8.39170928 C139.697046,7.44794218 138.974516,6.60145085 138.134848,5.88310155 C137.345753,5.19736762 136.481196,4.60491404 135.558097,4.11733397 C134.595516,3.6856424 133.58383,3.37480551 132.545838,3.19182821 C130.525022,2.80863845 128.463485,2.68993761 126.412443,2.83867469 C124.484705,2.96482067 122.565982,3.20472791 120.666166,3.55715943 C118.839455,3.89813524 117.12162,4.26346646 115.548955,4.6531531 C112.403624,5.42034867 109.79058,6.1266557 107.951772,6.58940858 C107.032367,6.83296273 106.306522,6.99127293 105.810528,7.10087229 L105,7.25918249 Z" id="Path" fill="#C4C4C6" fill-rule="nonzero"></path>
            <path d="M104,15 L104.44004,14.9016645 C104.713578,14.9016645 105.117939,14.7295774 105.629336,14.5697822 C107.053139,14.1223252 108.447514,13.5803533 109.803766,12.9472463 C110.648167,12.5661962 111.552032,12.1236864 112.515362,11.7180525 L115.524281,10.218436 C116.558969,9.68988264 117.629336,9.14903735 118.735382,8.60819206 C119.841427,8.06734678 120.959366,7.53879343 122.089197,7.02253202 C123.219029,6.50627061 124.384539,6.03917695 125.526264,5.60895911 C126.654085,5.18120108 127.805827,4.82408741 128.975223,4.53956047 C130.06659,4.25720789 131.181764,4.08432013 132.305253,4.02329906 C132.828112,3.99223365 133.352265,3.99223365 133.875124,4.02329906 C134.361402,4.07724973 134.842656,4.17179669 135.314172,4.30601365 C136.151143,4.55291567 136.931665,4.97089838 137.609514,5.53520748 C138.123627,5.96711832 138.576073,6.47198699 138.953419,7.03482396 C139.197288,7.39490231 139.408302,7.77759304 139.583746,8.17797422 C139.685433,8.3617046 139.828152,8.51764094 140,8.63277594 C139.820575,8.52460241 139.669498,8.37267772 139.55996,8.19026616 C139.351926,7.81528583 139.121552,7.4540264 138.870168,7.10857559 C138.469497,6.5824441 138.00137,6.11515477 137.478692,5.71958655 C136.798511,5.23314104 136.036066,4.88290833 135.230922,4.68706373 C134.773463,4.57788187 134.308051,4.50798935 133.839445,4.47810078 C133.336604,4.44134078 132.831879,4.44134078 132.329039,4.47810078 C131.235914,4.56798777 130.153077,4.76137248 129.094153,5.05582188 C127.976214,5.3508284 126.858276,5.74417043 125.728444,6.16209633 C124.598612,6.58002224 123.456888,7.07169977 122.327056,7.58796118 C121.197225,8.10422259 120.079286,8.620484 118.973241,9.14903735 L115.750248,10.6609458 C113.645193,11.6688847 111.670961,12.5784881 109.934589,13.2791286 C109.078295,13.6233029 108.269574,13.9183094 107.555996,14.1518563 C106.842418,14.3854031 106.200198,14.5574902 105.676908,14.6927015 C105.153617,14.8279129 104.725471,14.8893726 104.487611,14.9385403 L104,15 Z" id="Path" fill="#C4C4C6" fill-rule="nonzero"></path>
            <path d="M111.96875,6.21699196 L111.90125,6.42192882 L111.81125,6.69919633 C111.81125,6.80769231 111.81125,6.9282434 111.7325,7.0608496 C111.666521,7.39439077 111.625143,7.73297938 111.60875,8.07347876 C111.597499,8.28226008 111.597499,8.49156311 111.60875,8.70034443 C111.60875,8.9293915 111.60875,9.17049369 111.60875,9.41159587 C111.665405,9.94789934 111.755608,10.4795203 111.87875,11.0028703 C112.0025,11.5694604 112.16,12.1481056 112.34,12.7508611 C112.7,13.956372 113.15,15.2221584 113.58875,16.4879449 C114.0275,17.7537313 114.46625,19.043628 114.82625,20.261194 C115.00625,20.8639495 115.16375,21.4667049 115.29875,22.02124 C115.43375,22.575775 115.54625,23.13031 115.63625,23.6245695 C115.72625,24.1188289 115.805,24.5889782 115.86125,25.010907 C115.9175,25.4328358 115.95125,25.7703789 115.985,26.0717566 C116.01875,26.3731343 115.985,26.6021814 115.985,26.7588978 C115.985,26.9156142 115.985,27 115.985,27 C115.990108,26.9197258 115.990108,26.839172 115.985,26.7588978 C115.985,26.598163 115.9625,26.369116 115.9175,26.0717566 C115.9175,25.782434 115.85,25.4207807 115.77125,25.010907 C115.6925,24.6010333 115.625,24.1549943 115.52375,23.6486797 C115.4225,23.1423651 115.2875,22.6239954 115.14125,22.0694604 C114.995,21.5149254 114.815,20.8639495 114.62375,20.3214696 C114.24125,19.1159587 113.78,17.9104478 113.29625,16.608496 C112.8125,15.3065442 112.34,14.0889782 111.94625,12.8834673 C111.74375,12.2807118 111.56375,11.6779564 111.42875,11.1234214 C111.286215,10.5859814 111.180928,10.0379916 111.11375,9.48392652 C111.11375,9.21871412 111.11375,8.96555683 111.035,8.73650976 C110.95625,8.50746269 111.035,8.26636051 111.035,8.04936854 C111.04022,7.67732335 111.074085,7.30637438 111.13625,6.94029851 C111.13625,6.78358209 111.20375,6.63892078 111.22625,6.51836969 C111.24875,6.3978186 111.22625,6.31343284 111.305,6.22904707 L111.3725,6 L111.96875,6.21699196 Z" id="Path" fill="#C4C4C6" fill-rule="nonzero"></path>
            <path d="M104,22 L104.450352,21.8789641 C104.730301,21.7821355 105.15631,21.648996 105.667521,21.4553387 C106.178732,21.2616813 106.884689,20.9954024 107.554132,20.6807092 C108.223575,20.366016 109.063421,19.9908048 109.988469,19.5792829 C110.913517,19.167761 111.765535,18.6957212 112.73927,18.2115778 L115.855221,16.6744225 C118.021781,15.609307 120.334401,14.4594664 122.683536,13.3822473 C125.032671,12.3050282 127.40615,11.3004306 129.706598,10.501594 C130.812778,10.1140614 131.938088,9.782801 133.078155,9.50909996 C134.118603,9.24259367 135.182456,9.07640995 136.254965,9.01285296 C137.18009,8.95995804 138.107319,9.07060297 138.993594,9.33964977 C139.770361,9.58170303 140.481935,9.99550014 141.074952,10.5500083 C141.38898,10.911461 141.643662,11.3199407 141.829596,11.7603668 L142,12.2324067 L141.233184,12.4744784 L141.087124,12.07506 C140.935236,11.7121606 140.73015,11.373624 140.478539,11.0704625 C139.98467,10.6002533 139.389359,10.2483773 138.737988,10.0416577 C137.952032,9.79268411 137.127499,9.68609454 136.303652,9.7269645 C135.287755,9.7732539 134.277794,9.90689202 133.285074,10.1263828 C132.226137,10.3563509 131.106342,10.6831477 129.974375,11.0462553 C127.686099,11.7966776 125.31262,12.7649644 122.951313,13.8058727 C120.590006,14.8467811 118.277386,15.9361038 116.086483,16.9770121 L112.946188,18.4657531 L110.073671,19.9060797 C108.653145,20.5490407 107.19851,21.1147098 105.716208,21.6005817 C105.180653,21.7821355 104.754644,21.8910677 104.499039,21.9636892 L104,22 Z" id="Path" fill="#C4C4C6" fill-rule="nonzero"></path>
            <path d="M107,27 L107.396406,26.8051948 C107.648664,26.6712662 108.045069,26.4886364 108.597635,26.2816558 C109.1502,26.0746753 109.714778,25.8433442 110.423503,25.5876623 C111.132228,25.3319805 111.961076,25.1006494 112.825961,24.8449675 C113.690846,24.5892857 114.687866,24.3336039 115.720923,24.0900974 C116.75398,23.8465909 117.835086,23.5787338 118.964242,23.3230519 C121.222552,22.8116883 123.625011,22.2881494 126.015457,21.7037338 C128.405902,21.1193182 130.820373,20.4862013 132.958561,19.7556818 C133.999579,19.4034865 135.021982,18.9971025 136.021695,18.5381494 C136.910645,18.1342769 137.759385,17.6450298 138.556288,17.0771104 C139.280541,16.6235437 139.932635,16.0611251 140.490267,15.4090909 C141.057595,14.5870591 141.297841,13.5782478 141.162955,12.5844156 L141.090882,12.1704545 L141.871681,12 C141.871681,12 141.871681,12.1704545 141.955767,12.487013 C142.014744,12.9477444 142.014744,13.4142686 141.955767,13.875 C141.834496,14.5941995 141.555343,15.2765904 141.138931,15.8717532 C140.526466,16.5870879 139.809409,17.2030106 139.012755,17.6980519 C138.176002,18.2905958 137.282601,18.7963851 136.346027,19.2077922 C135.316085,19.6728142 134.261372,20.0792888 133.186794,20.4253247 C130.976533,21.1558442 128.562062,21.7524351 126.159604,22.2881494 C123.757146,22.8238636 121.354688,23.3108766 119.072352,23.7857143 C116.790017,24.2605519 114.711891,24.7353896 112.922059,25.1737013 C112.03315,25.4050325 111.216314,25.6363636 110.519601,25.8433442 C109.822888,26.0503247 109.174225,26.2573052 108.657696,26.4277597 L107.456467,26.8660714 L107,27 Z" id="Path" fill="#C4C4C6" fill-rule="nonzero"></path>
            <path d="M113,31 L113.357295,30.8892617 C113.607401,30.8154362 113.952786,30.704698 114.405359,30.5939597 C114.857933,30.4832215 115.405785,30.3478747 116.037006,30.2248322 L116.525308,30.1263982 L117.049341,30.0279642 L118.240323,29.8557047 L119.431306,29.6957494 C119.86006,29.6342282 120.300723,29.5973154 120.753296,29.5604027 C121.658443,29.4619687 122.623139,29.4004474 123.611655,29.3266219 C125.600595,29.1912752 127.720544,29.0805369 129.816674,28.7852349 C130.857862,28.6337757 131.888295,28.4118214 132.901319,28.1208054 C133.139515,28.0469799 133.401531,27.9854586 133.639728,27.8870246 L134.354317,27.6163311 L135.033177,27.2841163 C135.26621,27.170228 135.492855,27.0428827 135.712037,26.9026846 C136.542113,26.4303757 137.290667,25.8191839 137.927265,25.0939597 C139.222608,23.5874294 140.261552,21.8650746 141,20 C141,20 140.499787,21.7595078 140.32114,22.1040268 C140.142493,22.4485459 138.391748,25.2293065 138.225011,25.401566 C137.52183,26.132828 136.719444,26.7545473 135.843046,27.2472036 C135.604849,27.3702461 135.390472,27.5055928 135.152276,27.6163311 L134.449596,27.9362416 L133.699277,28.1946309 C133.45312,28.2854959 133.202698,28.3635213 132.948958,28.4284116 C131.919846,28.7078674 130.873252,28.913429 129.816674,29.0436242 C127.696725,29.3020134 125.576776,29.3758389 123.587835,29.4742729 C122.599319,29.5357942 121.634624,29.5850112 120.729477,29.6588367 L119.407486,29.7695749 L118.216504,29.917226 L117.025521,30.0771812 L116.501489,30.1510067 L116.013186,30.2494407 C115.381965,30.360179 114.822203,30.4955257 114.36963,30.5939597 C113.917057,30.6923937 113.571672,30.803132 113.333475,30.8646532 L113,31 Z" id="Path" fill="#C4C4C6" fill-rule="nonzero"></path>
            <path d="M132.623274,3 L132.694768,3 L132.933081,3.19157976 C133.215972,3.44682991 133.475209,3.72736923 133.707599,4.02974121 C134.058921,4.50502667 134.354778,5.01927325 134.589358,5.5623793 C134.861669,6.27540611 135.080729,7.00783165 135.244719,7.75357281 C135.447285,8.53186559 135.685598,9.37002704 135.935827,10.2560834 C136.186055,11.1421398 136.460116,12.0880649 136.686513,13.0938586 C136.917448,14.1268916 137.021492,15.184476 136.99632,16.2429509 C136.960564,17.3265654 136.853086,18.4065878 136.674597,19.4758594 C136.505285,20.5441157 136.266459,21.6000688 135.959658,22.6369255 C135.650982,23.6449131 135.252167,24.6227643 134.768092,25.5585168 C134.314216,26.4199165 133.800574,27.2481502 133.230973,28.03708 C132.682853,28.7794515 132.134733,29.4619544 131.610444,30.0726149 C130.561866,31.2699884 129.656276,32.2638084 129.012831,32.9343376 L128,34 L128.953252,32.8864426 C129.560951,32.1680185 130.442709,31.1622248 131.431709,29.9169564 C132.595143,28.5212162 133.60584,27.0038022 134.44637,25.3908845 C134.8987,24.4687905 135.26566,23.5068388 135.54261,22.5171881 C135.824445,21.4946804 136.039386,20.4547345 136.186055,19.404017 C136.351652,18.3579443 136.447192,17.3018822 136.472031,16.2429509 C136.479582,15.2228178 136.363544,14.2055532 136.126477,13.213596 C135.90008,12.2437234 135.614104,11.3217458 135.35196,10.4237157 C135.089815,9.52568559 134.839586,8.69949788 134.63702,7.90923136 C134.464908,7.21509646 134.241873,6.5347239 133.969743,5.87369641 C133.748262,5.37751122 133.472504,4.90764231 133.147563,4.47276941 C132.943713,4.20166482 132.712071,3.95284081 132.456455,3.73039784 L132.253889,3.56276555 L132.170479,3.50289687 L132.623274,3 Z" id="Path" fill="#C4C4C6" fill-rule="nonzero"></path>
            <path d="M126.865647,3.24471635 L126.865647,3.34260289 L126.865647,3.45272525 C126.862324,3.49753808 126.862324,3.54250641 126.865647,3.58731924 C126.765533,3.90570279 126.711751,4.23484801 126.705704,4.56618465 C126.74502,5.81002728 126.960075,7.04392097 127.345476,8.23692992 C127.558733,8.99555061 127.825305,9.81535039 128.091877,10.6840934 C128.091877,10.9043382 128.211834,11.1368187 128.278477,11.3692992 C128.342479,11.6065443 128.387032,11.8478571 128.411763,12.0912125 C128.411763,12.5684093 128.571706,13.0456062 128.62502,13.5472747 C128.758306,14.538376 128.878263,15.5661846 128.944906,16.618465 C129.011549,17.6707453 129.024878,18.7352614 128.944906,19.7997775 C128.944906,20.3259177 128.944906,20.8642937 128.851606,21.3904338 C128.758306,21.916574 128.851606,22.4427141 128.71832,22.9688543 C128.611692,24.0088988 128.465077,25.0489433 128.278477,26.0278087 C128.089392,26.9750102 127.822048,27.907626 127.478762,28.8175751 C127.145547,29.6863181 126.759018,30.4694105 126.399146,31.1913237 L125.41283,33.1612903 L124.653101,34.6662959 L124,36 L124.559801,34.6295884 C124.733072,34.2013348 124.959658,33.6751947 125.22623,33.0756396 C125.492802,32.4760845 125.799359,31.8520578 126.132574,31.0812013 C126.465789,30.3103448 126.825661,29.56396 127.132218,28.7074527 C127.446737,27.8067189 127.691702,26.8867527 127.865291,25.9543938 C128.038562,24.9755284 128.15852,23.9721913 128.238491,22.9321468 C128.238491,22.4182425 128.318463,21.8921023 128.358449,21.3659622 C128.398434,20.839822 128.358449,20.3136819 128.358449,19.7875417 C128.358449,18.7352614 128.358449,17.6829811 128.25182,16.6551724 C128.145191,15.6273637 128.038562,14.5995551 127.905277,13.6206897 C127.825305,13.131257 127.745333,12.6540601 127.678691,12.1768632 C127.678691,11.9321468 127.598719,11.7241379 127.545405,11.5038932 C127.49209,11.2836485 127.425447,11.0634038 127.358804,10.8431591 C127.092233,9.97441602 126.812332,9.15461624 126.599075,8.39599555 C126.188518,7.14053665 125.964353,5.83996599 125.932645,4.5294772 C125.933471,4.14467915 125.991771,3.76180239 126.105917,3.39154616 C126.100094,3.33048384 126.100094,3.26907122 126.105917,3.2080089 C126.101996,3.17138969 126.101996,3.13450575 126.105917,3.09788654 L126.105917,3 L126.865647,3.24471635 Z" id="Path" fill="#C4C4C6" fill-rule="nonzero"></path>
            <path d="M120.008097,4.17918089 L119.910931,4.4778157 C119.910931,4.69283276 119.789474,4.96757679 119.716599,5.31399317 C119.643725,5.66040956 119.716599,5.70819113 119.643725,5.92320819 C119.57085,6.13822526 119.643725,6.40102389 119.643725,6.65187713 C119.650753,7.24334572 119.695374,7.83380357 119.777328,8.41979522 C119.947368,9.69795222 120.311741,11.2030717 120.688259,12.8156997 C121.064777,14.4283276 121.441296,16.1604096 121.672065,17.9283276 C121.781377,18.8122867 121.878543,19.6843003 121.927126,20.5682594 C121.975709,21.4522184 122,22.3003413 122,23.1365188 C122,23.5426621 122,23.9607509 122,24.331058 C122,24.7013652 122,25.1313993 121.91498,25.5255973 C121.82996,25.9197952 121.842105,26.278157 121.817814,26.6365188 C121.793522,26.9948805 121.720648,27.3293515 121.672065,27.6638225 C121.574899,28.3208191 121.453441,28.9180887 121.34413,29.443686 C121.234818,29.9692833 121.137652,30.4351536 121.02834,30.8054608 C120.834008,31.5580205 120.712551,32 120.712551,32 C120.712551,32 120.712551,31.5699659 120.906883,30.8054608 C120.979757,30.4232082 121.040486,29.9573379 121.125506,29.4317406 C121.125506,29.168942 121.198381,28.8822526 121.234818,28.5836177 C121.271255,28.2849829 121.331984,27.9744027 121.356275,27.6399317 C121.380567,27.3054608 121.417004,26.9709898 121.453441,26.6245734 C121.489879,26.278157 121.453441,25.9078498 121.538462,25.5255973 C121.623482,25.1433447 121.538462,24.7610922 121.538462,24.331058 C121.538462,23.9010239 121.538462,23.5307167 121.538462,23.1365188 C121.538462,22.3122867 121.538462,21.4641638 121.42915,20.6040956 C121.319838,19.7440273 121.246964,18.8720137 121.11336,18 C120.979757,17.1279863 120.821862,16.2679181 120.651822,15.4197952 C120.481781,14.5716724 120.275304,13.7474403 120.080972,12.947099 C119.680162,11.334471 119.315789,9.8890785 119.133603,8.50341297 C119.045382,7.89003702 119.000739,7.27135909 119,6.65187713 C119,6.37713311 119,6.11433447 119,5.87542662 C119,5.63651877 119,5.42150171 119.08502,5.21843003 C119.13254,4.91044463 119.205659,4.60681047 119.303644,4.3105802 C119.303644,4.10750853 119.388664,4 119.388664,4 L120.008097,4.17918089 Z" id="Path" fill="#C4C4C6" fill-rule="nonzero"></path>
            <path d="M126.964946,2.5 C126.967636,2.62372289 126.920362,2.74331123 126.833802,2.83175301 C126.747242,2.9201948 126.628698,2.97002925 126.504946,2.97 C126.245372,2.97 126.034946,2.75957383 126.034946,2.5 C126.034946,2.24042617 126.245372,2.03 126.504946,2.03 C126.628698,2.02997075 126.747242,2.0798052 126.833802,2.16824699 C126.920362,2.25668877 126.967636,2.37627711 126.964946,2.5 L126.964946,2.5 Z" id="Path" fill="#C4C4C6" fill-rule="nonzero"></path>
            <path d="M126.944427,5.525 C126.940198,5.76037205 126.758949,5.95456755 126.524427,5.975 C126.264853,5.975 126.054427,5.76457383 126.054427,5.505 C126.05437,5.24375996 126.263244,5.03044249 126.524427,5.025 C126.776252,5.05132805 126.961961,5.27241041 126.944427,5.525 L126.944427,5.525 Z" id="Path" fill="#C4C4C6" fill-rule="nonzero"></path>
            <path d="M127.964946,11.5 C127.967636,11.6237229 127.920362,11.7433112 127.833802,11.831753 C127.747242,11.9201948 127.628698,11.9700292 127.504946,11.97 C127.245372,11.97 127.034946,11.7595738 127.034946,11.5 C127.034946,11.2404262 127.245372,11.03 127.504946,11.03 C127.628698,11.0299708 127.747242,11.0798052 127.833802,11.168247 C127.920362,11.2566888 127.967636,11.3762771 127.964946,11.5 L127.964946,11.5 Z" id="Path" fill="#C4C4C6" fill-rule="nonzero"></path>
            <path d="M128.965,21.5 C128.991821,21.6694056 128.909516,21.83773 128.754522,21.9304557 C128.599528,22.0231814 128.400472,22.0231814 128.245478,21.9304557 C128.090484,21.83773 128.008179,21.6694056 128.035,21.5 C128.008179,21.3305944 128.090484,21.16227 128.245478,21.0695443 C128.400472,20.9768186 128.599528,20.9768186 128.754522,21.0695443 C128.909516,21.16227 128.991821,21.3305944 128.965,21.5 Z" id="Path" fill="#C4C4C6" fill-rule="nonzero"></path>
            <path d="M132.911277,3.48522686 C132.913967,3.60894974 132.866693,3.72853809 132.780133,3.81697987 C132.693573,3.90542165 132.575029,3.9552561 132.451277,3.95522686 C132.242572,3.90626895 132.093439,3.72229376 132.088729,3.50797516 C132.084019,3.29365656 132.224924,3.10330691 132.431277,3.04522686 C132.553307,3.03980565 132.672482,3.08314276 132.762526,3.16568269 C132.852569,3.24822263 132.906086,3.36318693 132.911277,3.48522686 Z" id="Path" fill="#C4C4C6" fill-rule="nonzero"></path>
            <path d="M136.999932,18.5082628 C136.995369,18.7843492 136.76787,19.0044694 136.491783,18.9999311 C136.215695,18.9953927 135.995555,18.767914 136.000068,18.4918268 C136.004582,18.2157396 136.232041,17.9955785 136.508129,18.0000674 C136.640743,18.0022236 136.767067,18.0569812 136.859301,18.1522902 C136.951536,18.2475993 137.002123,18.3756497 136.999932,18.5082628 L136.999932,18.5082628 Z" id="Path" fill="#C4C4C6" fill-rule="nonzero"></path>
            <path d="M136,9.5 C136,9.77614237 135.776142,10 135.5,10 C135.223858,10 135,9.77614237 135,9.5 C135,9.22385763 135.223858,9 135.5,9 C135.776142,9 136,9.22385763 136,9.5 Z" id="Path" fill="#C4C4C6" fill-rule="nonzero"></path>
            <path d="M135.989537,4.52 C135.984225,4.78286493 135.772402,4.99468798 135.509537,5 C135.233395,5 135.009537,4.77614237 135.009537,4.5 C135.009537,4.22385763 135.233395,4 135.509537,4 C135.643118,4.00247455 135.769895,4.05938665 135.860515,4.15755869 C135.951136,4.25573074 135.99774,4.3866489 135.989537,4.52 Z" id="Path" fill="#C4C4C6" fill-rule="nonzero"></path>
            <path d="M142.99204,11 C143.040758,11.3414581 142.863042,11.6771852 142.535929,11.8616508 C142.208815,12.0461164 141.791185,12.0461164 141.464071,11.8616508 C141.136958,11.6771852 140.959242,11.3414581 141.00796,11 C140.959242,10.6585419 141.136958,10.3228148 141.464071,10.1383492 C141.791185,9.9538836 142.208815,9.9538836 142.535929,10.1383492 C142.863042,10.3228148 143.040758,10.6585419 142.99204,11 L142.99204,11 Z" id="Path" fill="#C4C4C6" fill-rule="nonzero"></path>
            <path d="M143,14.0001109 C142.999949,14.4060002 142.754557,14.7715946 142.378935,14.9253969 C142.003314,15.0791991 141.571985,14.9906951 141.287283,14.7014012 C141.00258,14.4121074 140.920988,13.9794192 141.08078,13.6063072 C141.240573,13.2331951 141.610047,12.9936841 142.015887,13.0001268 C142.561955,13.0087957 143.000069,13.4539747 143,14.0001109 L143,14.0001109 Z" id="Path" fill="#C4C4C6" fill-rule="nonzero"></path>
            <path d="M119.97,4.50010635 C119.969942,4.75836545 119.761516,4.96819585 119.503263,4.96998863 C119.24501,4.9717814 119.033691,4.76486484 119.030047,4.50663144 C119.026403,4.24839804 119.2318,4.03560123 119.49,4.03010635 C119.616376,4.0274169 119.738507,4.07574477 119.828824,4.16418005 C119.919141,4.25261533 119.970029,4.37370248 119.97,4.50010635 L119.97,4.50010635 Z" id="Path" fill="#C4C4C6" fill-rule="nonzero"></path>
            <path d="M120.965,14.5 C120.991821,14.6694056 120.909516,14.83773 120.754522,14.9304557 C120.599528,15.0231814 120.400472,15.0231814 120.245478,14.9304557 C120.090484,14.83773 120.008179,14.6694056 120.035,14.5 C120.008179,14.3305944 120.090484,14.16227 120.245478,14.0695443 C120.400472,13.9768186 120.599528,13.9768186 120.754522,14.0695443 C120.909516,14.16227 120.991821,14.3305944 120.965,14.5 L120.965,14.5 Z" id="Path" fill="#C4C4C6" fill-rule="nonzero"></path>
            <path d="M113.889872,17.5099995 C113.884383,17.7240027 113.707418,17.8935793 113.493376,17.8899432 C113.279333,17.886307 113.108231,17.7108175 113.110014,17.4967512 C113.111797,17.282685 113.285798,17.1100698 113.499872,17.1099995 C113.605062,17.1099649 113.705807,17.1524239 113.77924,17.2277404 C113.852674,17.3030569 113.892569,17.4048434 113.889872,17.5099995 L113.889872,17.5099995 Z" id="Path" fill="#C4C4C6" fill-rule="nonzero"></path>
            <path d="M115.859861,24.5099994 C115.854375,24.707427 115.69085,24.8635709 115.493379,24.8599385 C115.295909,24.8563062 115.138237,24.6942541 115.140015,24.4967583 C115.141793,24.2992625 115.302357,24.1400756 115.499861,24.1399994 C115.597097,24.1399619 115.690213,24.17926 115.758021,24.2489516 C115.825829,24.3186432 115.862562,24.4128009 115.859861,24.5099994 Z" id="Path" fill="#C4C4C6" fill-rule="nonzero"></path>
            <path d="M121.869928,22.5049285 C121.872718,22.6038873 121.834632,22.6996276 121.76463,22.7696298 C121.694628,22.8396321 121.598887,22.8777177 121.499928,22.8749285 C121.401798,22.8749285 121.307687,22.8359464 121.238299,22.766558 C121.16891,22.6971695 121.129928,22.6030586 121.129928,22.5049285 C121.129857,22.2989043 121.293976,22.1303501 121.499928,22.1249285 C121.599816,22.124892 121.695475,22.1652437 121.765158,22.2368103 C121.834841,22.3083768 121.872628,22.4050774 121.869928,22.5049285 Z" id="Path" fill="#C4C4C6" fill-rule="nonzero"></path>
            <path d="M120.789911,29.5 C120.790263,29.6581791 120.667738,29.7894551 120.509911,29.8 C120.346425,29.7948061 120.215105,29.6634857 120.209911,29.5 C120.209911,29.3343146 120.344225,29.2 120.509911,29.2 C120.586839,29.2026069 120.659575,29.2356902 120.712095,29.2919613 C120.764615,29.3482325 120.792609,29.4230748 120.789911,29.5 Z" id="Path" fill="#C4C4C6" fill-rule="nonzero"></path>
            <path d="M126.79,29.5 C126.79,29.603607 126.734726,29.6993439 126.645,29.7511474 C126.555274,29.8029509 126.444726,29.8029509 126.355,29.7511474 C126.265274,29.6993439 126.21,29.603607 126.21,29.5 C126.21,29.3398374 126.339837,29.21 126.5,29.21 C126.660163,29.21 126.79,29.3398374 126.79,29.5 L126.79,29.5 Z" id="Path" fill="#C4C4C6" fill-rule="nonzero"></path>
            <path d="M132.789828,28.5099993 C132.78435,28.6687446 132.652189,28.7935444 132.49339,28.7899239 C132.334592,28.7863035 132.208255,28.6556102 132.210018,28.4967803 C132.211781,28.3379504 132.340988,28.2100938 132.499828,28.2099993 C132.578505,28.2099525 132.653824,28.2418749 132.708507,28.2984429 C132.763189,28.3550108 132.792541,28.4313689 132.789828,28.5099993 Z" id="Path" fill="#C4C4C6" fill-rule="nonzero"></path>
            <path d="M111.895,12.4369524 C111.919919,12.5930727 111.850546,12.7492226 111.71799,12.8353811 C111.585433,12.9215396 111.414567,12.9215396 111.28201,12.8353811 C111.149454,12.7492226 111.080081,12.5930727 111.105,12.4369524 C111.135984,12.2428342 111.303425,12.1 111.5,12.1 C111.696575,12.1 111.864016,12.2428342 111.895,12.4369524 L111.895,12.4369524 Z" id="Path" fill="#C4C4C6" fill-rule="nonzero"></path>
            <path d="M111.970006,6.50009931 C111.969963,6.69109732 111.854339,6.86307502 111.677481,6.93519706 C111.500623,7.0073191 111.297708,6.96524086 111.164112,6.82874054 C111.030516,6.69224023 110.992811,6.48846687 111.068719,6.31320088 C111.144627,6.13793488 111.319052,6.02603552 111.510006,6.03009931 C111.765667,6.03554011 111.970064,6.24438109 111.970006,6.50009931 Z" id="Path" fill="#C4C4C6" fill-rule="nonzero"></path>
            <path d="M119.965,8.5 C119.991821,8.66940556 119.909516,8.83772998 119.754522,8.9304557 C119.599528,9.02318143 119.400472,9.02318143 119.245478,8.9304557 C119.090484,8.83772998 119.008179,8.66940556 119.035,8.5 C119.008179,8.33059444 119.090484,8.16227002 119.245478,8.0695443 C119.400472,7.97681857 119.599528,7.97681857 119.754522,8.0695443 C119.909516,8.16227002 119.991821,8.33059444 119.965,8.5 L119.965,8.5 Z" id="Path" fill="#C4C4C6" fill-rule="nonzero"></path>
            <rect id="Rectangle" fill="#009BA0" fill-rule="nonzero" x="44" y="9" width="6" height="24"></rect>
            <path d="M74,14.3972463 L63.9338545,25.4120347 C62.8875526,26.5502295 61.7330126,27.6761856 61.7330126,27.7129016 L61.7330126,27.7129016 C61.7330126,27.7129016 63.3926639,27.6027537 65.4131088,27.6027537 L73.9639206,27.6027537 L73.9639206,33 L54,33 L54,27.663947 L64.5472038,16.3921469 C65.3890559,15.4620092 66.7360192,14.3605303 66.7360192,14.3238144 L66.7360192,14.3238144 C66.7360192,14.3238144 64.5472038,14.4217236 63.055923,14.4217236 L54.3367408,14.4217236 L54.3367408,9 L74,9 L74,14.3972463 Z" id="Path" fill="#EE7917" fill-rule="nonzero"></path>
            <rect id="Rectangle" fill="#009BA0" fill-rule="nonzero" x="44" y="1" width="6" height="5"></rect>
            <rect id="Rectangle" fill="#D3007F" fill-rule="nonzero" x="101" y="9" width="6" height="24"></rect>
            <rect id="Rectangle" fill="#D3007F" fill-rule="nonzero" x="101" y="1" width="6" height="5"></rect>
            <path d="M77,27.6449312 L87.0601685,16.6413653 C88.1070999,15.5410087 89.2623345,14.3183902 89.2623345,14.3183902 L89.2623345,14.3183902 C89.2623345,14.3183902 87.6137184,14.4161997 85.5800241,14.4161997 L77.0361011,14.4161997 L77.0361011,9 L97,9 L97,14.3917473 L86.4584838,25.6520632 C85.6161252,26.5812532 84.2563177,27.6816098 84.2563177,27.7182883 L84.2563177,27.7182883 C84.2563177,27.7182883 86.4584838,27.6082527 87.9386282,27.6082527 L96.6269555,27.6082527 L96.6269555,33 L77,33 L77,27.6449312 Z" id="Path" fill="#FFD844" fill-rule="nonzero"></path>
            <polygon id="Path" fill="#575756" fill-rule="nonzero" points="225.632278 38.1630716 235 31 225.379747 37.824849 225.379747 37.824849 225.379747 37.824849 225.367722 37.824849 225.367722 37.8369284 216 45 225.620253 38.175151 225.620253 38.175151 225.632278 38.175151 225.632278 38.1630716"></polygon>
            <polygon id="Path" fill="#575756" fill-rule="nonzero" points="217.133998 23.175359 228 15 216.878184 22.824641 216.878184 22.824641 216.878184 22.8367347 216.866002 22.8367347 216.866002 22.8367347 206 31 217.121816 23.1874528 217.121816 23.1874528 217.133998 23.175359 217.133998 23.175359"></polygon>
            <polygon id="Path" fill="#575756" fill-rule="nonzero" points="223.623003 38.1562952 229 34 223.376997 37.8321274 223.376997 37.8321274 223.376997 37.8321274 223.376997 37.8321274 223.376997 37.8321274 218 42 223.623003 38.1678726 223.623003 38.1678726 223.623003 38.1678726 223.623003 38.1562952"></polygon>
            <polygon id="Path" fill="#575756" fill-rule="nonzero" points="227.630404 31.6730038 236 25 227.38145 31.3146388 227.38145 31.3146388 227.369596 31.3269962 227.369596 31.3269962 227.369596 31.3269962 219 38 227.61855 31.6853612 227.61855 31.6853612 227.61855 31.6730038 227.630404 31.6730038"></polygon>
            <polygon id="Path" fill="#575756" fill-rule="nonzero" points="226.623377 28.1652614 236 21 226.376623 27.8229342 226.376623 27.8229342 226.376623 27.8229342 226.364873 27.8347386 226.364873 27.8347386 217 35 226.611626 28.1652614 226.611626 28.1652614 226.623377 28.1652614 226.623377 28.1652614"></polygon>
            <polygon id="Path" fill="#575756" fill-rule="nonzero" points="221.63907 28.1711027 228 23 221.385116 27.8162231 221.385116 27.8162231 221.373023 27.8162231 221.373023 27.8162231 221.373023 27.8162231 215 33 221.626977 28.1837769 221.626977 28.1837769 221.626977 28.1711027 221.63907 28.1711027"></polygon>
            <polygon id="Path" fill="#575756" fill-rule="nonzero" points="223.626977 23.1772152 230 18 223.373023 22.8101266 223.373023 22.8101266 223.373023 22.8227848 223.373023 22.8227848 223.373023 22.8227848 217 28 223.626977 23.1898734 223.626977 23.1898734 223.626977 23.1772152 223.626977 23.1772152"></polygon>
            <polygon id="Path" fill="#3B3735" fill-rule="nonzero" points="238.626977 28.1837769 245 23 238.373023 27.8162231 238.373023 27.8162231 238.373023 27.8162231 238.36093 27.8288973 238.36093 27.8288973 232 33 238.626977 28.1837769 238.626977 28.1837769 238.626977 28.1837769 238.626977 28.1837769"></polygon>
            <polygon id="Path" fill="#575756" fill-rule="nonzero" points="231.633147 31.1711027 238 26 231.378957 30.8162231 231.378957 30.8162231 231.378957 30.8162231 231.366853 30.8162231 231.366853 30.8162231 225 36 231.621043 31.1837769 231.621043 31.1837769 231.621043 31.1837769 231.633147 31.1711027"></polygon>
            <polygon id="Path" fill="#575756" fill-rule="nonzero" points="224.63907 27.1711027 231 22 224.385116 26.8162231 224.385116 26.8162231 224.373023 26.8162231 224.373023 26.8162231 224.373023 26.8162231 218 32 224.626977 27.1837769 224.626977 27.1837769 224.626977 27.1837769 224.63907 27.1711027"></polygon>
            <polygon id="Path" fill="#575756" fill-rule="nonzero" points="215.641438 25.6563707 222 21 215.38316 25.3320463 215.38316 25.3320463 215.370861 25.3320463 215.370861 25.3320463 215.370861 25.3320463 209 30 215.629139 25.6679537 215.629139 25.6679537 215.629139 25.6679537 215.641438 25.6563707"></polygon>
            <polygon id="Path" fill="#FFFFFF" fill-rule="nonzero" points="225.626346 39.1692573 235 32 225.373654 38.8186528 225.373654 38.8186528 225.373654 38.8186528 225.361621 38.8307427 225.361621 38.8307427 216 46 225.614313 39.1692573 225.614313 39.1692573 225.626346 39.1692573 225.626346 39.1692573"></polygon>
            <polygon id="Path" fill="#FFFFFF" fill-rule="nonzero" points="217.127978 24.1632653 228 16 216.884211 23.8125472 216.884211 23.8125472 216.872022 23.824641 216.859834 23.824641 216.859834 23.824641 206 32 217.115789 24.175359 217.115789 24.175359 217.127978 24.1632653 217.127978 24.1632653"></polygon>
            <polygon id="Path" fill="#FFFFFF" fill-rule="nonzero" points="223.628723 38.1678726 229 34 223.382979 37.8321274 223.382979 37.8321274 223.371277 37.8321274 223.371277 37.8437048 223.371277 37.8437048 218 42 223.617021 38.1678726 223.617021 38.1678726 223.617021 38.1678726 223.628723 38.1678726"></polygon>
            <polygon id="Path" fill="#FFFFFF" fill-rule="nonzero" points="227.630404 32.6666667 236 26 227.38145 32.3209877 227.38145 32.3209877 227.38145 32.3209877 227.369596 32.3209877 227.369596 32.3333333 219 39 227.61855 32.6790123 227.61855 32.6790123 227.630404 32.6790123 227.630404 32.6666667"></polygon>
            <polygon id="Path" fill="#FFFFFF" fill-rule="nonzero" points="227.635127 29.1652614 237 22 227.388374 28.8229342 227.388374 28.8229342 227.376623 28.8347386 227.376623 28.8347386 227.376623 28.8347386 218 36 227.623377 29.1770658 227.623377 29.1770658 227.623377 29.1652614 227.635127 29.1652614"></polygon>
            <polygon id="Path" fill="#FFFFFF" fill-rule="nonzero" points="221.633147 28.1711027 228 23 221.378957 27.8162231 221.378957 27.8162231 221.366853 27.8162231 221.366853 27.8288973 221.366853 27.8288973 215 33 221.621043 28.1837769 221.621043 28.1837769 221.621043 28.1837769 221.633147 28.1711027"></polygon>
            <polygon id="Path" fill="#FFFFFF" fill-rule="nonzero" points="223.633147 23.1711027 230 18 223.378957 22.8162231 223.378957 22.8162231 223.366853 22.8162231 223.366853 22.8162231 223.366853 22.8162231 217 28 223.621043 23.1837769 223.621043 23.1837769 223.621043 23.1837769 223.633147 23.1711027"></polygon>
            <polygon id="Path" fill="#FFFFFF" fill-rule="nonzero" points="238.626977 29.1837769 245 24 238.373023 28.8162231 238.373023 28.8162231 238.373023 28.8288973 238.373023 28.8288973 238.373023 28.8288973 232 34 238.626977 29.1837769 238.626977 29.1837769 238.626977 29.1837769 238.63907 29.1837769"></polygon>
            <polygon id="Path" fill="#FFFFFF" fill-rule="nonzero" points="231.633147 31.1837769 238 26 231.378957 30.8162231 231.378957 30.8162231 231.378957 30.8162231 231.366853 30.8288973 231.366853 30.8288973 225 36 231.621043 31.1837769 231.621043 31.1837769 231.633147 31.1837769 231.633147 31.1837769"></polygon>
            <polygon id="Path" fill="#FFFFFF" fill-rule="nonzero" points="224.633147 28.1837769 231 23 224.378957 27.8162231 224.378957 27.8162231 224.366853 27.8288973 224.366853 27.8288973 224.366853 27.8288973 218 33 224.621043 28.1837769 224.621043 28.1837769 224.621043 28.1837769 224.633147 28.1837769"></polygon>
            <polygon id="Path" fill="#FFFFFF" fill-rule="nonzero" points="216.629139 26.6679537 223 22 216.370861 26.3320463 216.370861 26.3320463 216.370861 26.3320463 216.358562 26.3436293 216.358562 26.3436293 210 31 216.61684 26.6679537 216.61684 26.6679537 216.61684 26.6679537 216.629139 26.6679537"></polygon>
            <path d="M241.73058,28.3745433 C240.271944,29.6929075 238.570444,30.7154861 236.720822,31.3853393 C234.493126,32.1459085 232.196146,32.6867125 229.862805,33 L229.753369,33 C226.090325,32.829463 222.487218,32.0072027 219.113715,30.5719387 L218.846203,30.4505357 L218.773246,30.1713086 C216.47508,20.6168876 219.186672,12.4828824 228.427972,8.11237216 C235.541341,4.67666549 241.511707,5.73287213 248.357564,9.12001758 L248.637235,9.25356095 L248.637235,9.55706861 C249.853196,17.7032141 248.126532,23.1420713 241.71842,28.3745433" id="Path" fill="#F6F5F4"></path>
            <path d="M241.646258,27.9070679 C238.705658,30.5772489 233.535104,31.4992396 229.393759,31.9063524 C225.893595,32.2721821 222.363911,31.5605282 219.2977,29.8707885 C218.329752,20.5790376 219.2977,14.304711 228.670862,10.0300267 C237.186348,6.70128091 242.39366,7.89867149 247.68674,10.5209568 C248.973252,18.7829518 246.16743,23.4767228 241.646258,27.9070679" id="Path" fill="#575756"></path>
            <path d="M221.056931,27 C220.981023,25.8911573 220.981023,24.7785495 221.056931,23.6697068 C221.405264,24.6806163 221.88628,25.6424873 222.487792,26.5309446 L221.104626,27 M234.828965,9 L235.007823,9 L235.365538,9 C235.269545,11.7996118 235.949629,14.5721831 237.332971,17.0208469 C237.600475,17.4780467 237.899259,17.9168424 238.227259,18.334202 C234.137494,21.4534404 229.585263,23.9370629 224.729473,25.6983713 C223.761624,23.9615918 223.157512,22.0516732 222.952821,20.0814332 L226.243801,17.7361564 C228.594035,16.1653177 231.12321,14.8705087 233.779667,13.8781759 C234.030121,12.2329794 234.380514,10.6040061 234.828965,9 M240.063531,9 C241.763328,9.33600582 243.41925,9.85917125 245,10.5596091 C244.105053,12.1236557 243.033038,13.5831007 241.804411,14.9100977 C241.391315,14.2494891 241.02863,13.5596475 240.719342,12.8462541 C240.251851,11.6174193 240.029198,10.3115886 240.063531,9" id="Shape" fill="#FFFFFF"></path>
            <path d="M221.056931,27 C220.981023,25.8476603 220.981023,24.6914078 221.056931,23.5390681 C221.400291,24.591726 221.881623,25.5919833 222.487792,26.5125448 L221.104626,27 M245,10 C245,10 243.151805,10.962724 240.767037,12.3641577 L240.767037,12.3641577 C241.06386,13.1048904 241.414609,13.8218345 241.816335,14.5089606 C243.039925,13.1490944 244.104346,11.648178 244.988076,10.0365591 L245,10 Z M236.474455,14.7526882 C232.837684,16.7390681 228.25893,19.1885305 223.286689,21.6623656 C223.582695,23.0528394 224.076841,24.3913653 224.753321,25.6351254 C229.601034,23.8218776 234.148897,21.2615744 238.239183,18.0430108 C237.919153,17.6061124 237.624523,17.1503684 237.356819,16.6781362 C237.014835,16.0815005 236.719785,15.4580326 236.474455,14.8136201" id="Shape" fill="#B1B1B1"></path>
            <path d="M224,17.6613139 C224,17.6613139 224,17.3810219 224.667447,16.7153285 C224.559505,17.1388539 224.473521,17.5676464 224.409836,18 L225.018735,17.5912409 C224.967857,17.1609699 224.999649,16.7249703 225.112412,16.3065693 C225.252927,16.1664234 225.428571,16.0262774 225.627635,15.8627737 C225.50596,16.3245963 225.40825,16.792371 225.334895,17.2642336 L225.943794,16.8437956 C225.893683,16.4096336 225.925455,15.9699531 226.037471,15.5474453 L226.693208,15.0686131 C226.575049,15.5218515 226.531547,15.9912331 226.564403,16.4583942 L227.290398,15.9678832 C227.239343,15.5177372 227.239343,15.0632847 227.290398,14.6131387 L227.466042,14.4963504 L227.82904,14.2744526 C227.776142,14.7092357 227.81199,15.1501987 227.934426,15.5708029 L228.742389,15.0919708 C228.60444,14.6745494 228.560461,14.2319271 228.613583,13.7956204 L229.444965,13.340146 C229.437728,13.6841069 229.485154,14.0270407 229.58548,14.3562044 L230.75644,13.7722628 C230.615366,13.4827766 230.528084,13.1701787 230.498829,12.849635 L231.271663,12.5109489 C231.276955,12.8195414 231.324225,13.1259891 231.412178,13.4218978 L232.665105,12.7912409 C232.552514,12.5705893 232.47358,12.3344097 232.430913,12.0905109 C232.855867,11.9450005 233.290088,11.8279519 233.730679,11.740146 L234,10.5722628 C234,10.5722628 233.379391,10.7240876 232.442623,11.0627737 C232.510697,10.6801663 232.662636,10.3172701 232.887588,10 L232.407494,10.1868613 C232.058302,10.5383294 231.769506,10.9447371 231.552693,11.389781 C231.271663,11.5065693 230.978923,11.6233577 230.674473,11.7751825 C230.748678,11.5268186 230.859153,11.2907086 231.002342,11.0744526 L230.569087,11.2379562 C230.297369,11.5194807 230.061405,11.8332725 229.866511,12.1722628 L228.98829,12.6510949 C229.082046,12.3991452 229.199674,12.1566855 229.339578,11.9270073 L228.929742,12.1489051 C228.654887,12.419012 228.436049,12.7404548 228.285714,13.0948905 L227.735363,13.4686131 C227.875878,13.0481752 227.992974,12.7562044 227.992974,12.7562044 L227.618267,13.0364964 C227.450556,13.3101889 227.301885,13.5950437 227.173302,13.8890511 C226.928593,14.0749097 226.694063,14.2737359 226.470726,14.4846715 C226.576112,14.2043796 226.64637,14.0408759 226.64637,14.0408759 L226.35363,14.3094891 C226.189075,14.4980056 226.061919,14.7159805 225.978923,14.9518248 C225.779859,15.150365 225.592506,15.3605839 225.416862,15.5708029 C225.592506,15.0919708 225.721311,14.7883212 225.721311,14.7883212 L225.428571,15.0569343 C225.141988,15.424458 224.941896,15.8515289 224.843091,16.3065693 C224.54306,16.7348453 224.280575,17.1881022 224.058548,17.6613139" id="Path" fill="#FFFFFF"></path>
            <path d="M221.884793,18 C221.576346,18.7567979 221.32181,19.5322208 221.122888,20.3210832 C221.065042,20.6127684 221.024019,20.9072062 221,21.2030948 C221.578154,23.382454 222.642322,25.4201317 224.121352,27.1798839 C225.192872,28.3370378 226.485147,29.2936836 227.930876,30 L229,29.860735 C226.736684,28.8576419 224.900021,27.1599325 223.789555,25.0444874 C222.644561,22.8752459 221.995588,20.5027903 221.884793,18.0812379" id="Path" fill="#FFFFFF"></path>
            <path d="M239.347727,9.10858543 C238.944152,9.05296132 238.537426,9.02144301 238.129855,9.01420913 C237.75663,8.99526362 237.382637,8.99526362 237.009412,9.01420913 C236.826731,14.6060053 239.311191,17.8855819 243.780783,21 L244,20.6342918 C240.626919,17.7400317 238.89588,13.4514947 239.347727,9.10858543" id="Path" fill="#FFFFFF"></path>
            <path d="M247,14 C247,14 246.507572,21.9417251 240.742559,26.7833367 C234.977546,31.6249483 224,30.9703426 224,30.9703426 C236.71906,30.3898433 243.024543,26.1781352 247,14" id="Path" fill="#B1B1B1"></path>
        </g>
    </g>
</svg>