<svg width="63" height="40" viewBox="0 0 170 38" fill="none" xmlns="http://www.w3.org/2000/svg">
<g clip-path="url(#clip0)">
<path d="M113.959 7.49316H93.522V27.7547H113.959V7.49316Z" fill="#F37121"/>
<path d="M170.026 0H113.985V27.78H170.026V0Z" fill="#D6006D"/>
<path d="M0 0H5.1928V4.10329H0V0ZM0.0771208 7.56942H5.1671V27.78H0.0771208V7.56942Z" fill="#424242"/>
<path d="M9.43408 27.7799V23.9315L18.4572 12.1059H9.94822V7.56934H24.9611V11.3923L15.8094 23.2434H24.9611V27.7799H9.43408Z" fill="#424242"/>
<path d="M28.1235 27.7799V23.9315L37.1724 12.1059H28.6377V7.56934H43.6505V11.3923L34.4989 23.2434H43.6505V27.7799H28.1235Z" fill="#424242"/>
<path d="M48.1494 0H53.3422V4.10329H48.1494V0ZM48.2522 7.56942H53.3422V27.78H48.2522V7.56942Z" fill="#424242"/>
<path d="M66.6837 27.7803C62.8533 27.7803 61.0796 25.0533 61.0796 22.1479V11.0104H58.7402V7.87558H61.0796V1.7334H65.1927V7.87558H69.1515V10.9849H65.1927V21.9185C65.1927 23.3967 65.9125 24.2632 67.4549 24.2632H69.1515V27.7803H66.6837Z" fill="#424242"/>
<path d="M82.2365 27.7801H78.8689L71.3882 7.51855H75.7327L80.5656 21.7909L85.3728 7.51855H89.7172L82.2365 27.7801Z" fill="#424242"/>
<path d="M124.293 27.7803H113.985V38.0003H124.293V27.7803Z" fill="#FFCD00"/>
<path d="M113.984 27.7803H108.817V32.903H113.984V27.7803Z" fill="#00BBB4"/>
<path d="M110.257 15.6994C109.717 14.5271 108.946 13.9409 107.147 13.9409C105.296 13.9409 104.242 14.8584 104.242 16.1072C104.242 17.3051 105.193 17.8658 107.172 18.4265C109.872 19.191 111.645 20.4908 111.645 23.065C111.645 26.2252 109.358 28.7994 104.55 28.7994C101.517 28.7994 99.409 27.678 98.4321 25.8684L101.363 24.0844C102.083 25.2313 103.034 25.8175 104.833 25.8175C107.224 25.8175 107.995 24.6961 107.995 23.5237C107.995 22.5297 107.25 21.8671 105.116 21.2554C102.442 20.5163 100.617 19.0636 100.617 16.5914C100.617 13.635 102.597 10.959 107.507 10.959C110.514 10.959 112.237 12.0294 113.188 13.8644L110.257 15.6994Z" fill="#C1C2C3"/>
<path d="M123.805 28.5706H120.566L122.005 21.1795C122.417 19.1661 121.748 18.5035 120.617 18.5035C119.46 18.5035 118.432 19.37 118.072 21.1541L116.632 28.5706H113.368L115.836 15.9804H119.023L118.843 16.8724C119.537 16.2097 120.617 15.751 121.902 15.751C123.419 15.751 124.499 16.4901 124.987 17.4076C125.99 16.4136 127.378 15.751 129.049 15.751C131.825 15.751 133.136 17.6624 132.545 20.6953L131.003 28.5706H127.738L129.178 21.1795C129.563 19.2936 129.049 18.5035 127.764 18.5035C126.607 18.5035 125.604 19.37 125.244 21.1541L123.805 28.5706Z" fill="#C1C2C3"/>
<path d="M139.666 21.0265H142.185L142.34 20.2874C142.622 18.8857 142.263 18.4269 140.437 18.4269C139.203 18.4269 138.612 18.6563 137.918 19.4974L135.836 17.8408C137.121 16.1841 138.664 15.7764 141.286 15.7764C144.525 15.7764 146.196 17.0252 145.527 20.3384L143.908 28.5959H140.72L140.926 27.602C140.232 28.4175 139.409 28.7998 137.918 28.7998C135.682 28.7998 134.139 27.5 134.139 25.4611C134.139 22.4538 136.401 21.0265 139.666 21.0265ZM141.723 23.3713H139.589C137.995 23.3713 137.378 23.9575 137.378 25.0279C137.378 25.8179 137.995 26.1748 138.972 26.1748C140.437 26.1748 141.286 25.5376 141.62 23.83L141.723 23.3713Z" fill="#C1C2C3"/>
<path d="M155.604 19.472C155.373 18.9877 155.013 18.5035 154.216 18.5035C153.008 18.5035 152.005 19.3955 151.645 21.1541L150.206 28.5706H146.941L149.409 15.9804H152.596L152.417 16.8724C153.008 16.2862 153.959 15.751 155.347 15.751C156.941 15.751 157.943 16.643 158.406 17.7644L155.604 19.472Z" fill="#C1C2C3"/>
<path d="M162.982 18.7072H165.476L166.016 15.9802H163.522L164.062 13.2021H160.823L158.818 23.4476L158.612 24.518C158.021 27.7293 159.538 28.5704 162.16 28.5704H163.522L164.088 25.7414H163.034C161.851 25.7414 161.697 25.2062 161.928 23.9573L162.982 18.7072Z" fill="#C1C2C3"/>
<path d="M109.126 14.9602C108.586 13.7878 107.815 13.2016 106.015 13.2016C104.165 13.2016 103.111 14.1191 103.111 15.3679C103.111 16.5658 104.062 17.1265 106.041 17.6872C108.74 18.4518 110.514 19.7516 110.514 22.3257C110.514 25.486 108.226 28.0601 103.419 28.0601C100.386 28.0601 98.2776 26.9387 97.3008 25.1292L100.231 23.3451C100.951 24.492 101.902 25.0782 103.702 25.0782C106.093 25.0782 106.864 23.9568 106.864 22.7844C106.864 21.7905 106.118 21.1278 103.985 20.5162C101.311 19.7771 99.4859 18.3244 99.4859 15.8522C99.4859 12.8958 101.465 10.2197 106.375 10.2197C109.383 10.2197 111.105 11.2901 112.057 13.1252L109.126 14.9602Z" fill="white"/>
<path d="M122.648 27.8313H119.409L120.848 20.4403C121.26 18.4269 120.591 17.7642 119.46 17.7642C118.303 17.7642 117.275 18.6308 116.915 20.4148L115.476 27.8313H112.211L114.679 15.2411H117.866L117.687 16.1331C118.381 15.4705 119.46 15.0117 120.746 15.0117C122.262 15.0117 123.342 15.7508 123.83 16.6683C124.833 15.6744 126.221 15.0117 127.892 15.0117C130.669 15.0117 131.98 16.9232 131.388 19.9561L129.846 27.8313H126.581L128.021 20.4403C128.406 18.5543 127.892 17.7642 126.607 17.7642C125.45 17.7642 124.447 18.6308 124.088 20.4148L122.648 27.8313Z" fill="white"/>
<path d="M138.535 20.2619H141.054L141.208 19.5228C141.491 18.121 141.131 17.6623 139.306 17.6623C138.072 17.6623 137.481 17.8917 136.786 18.7327L134.704 17.0761C135.99 15.4195 137.532 15.0117 140.154 15.0117C143.393 15.0117 145.064 16.2605 144.396 19.5738L142.776 27.8313H139.588L139.794 26.8373C139.1 27.6529 138.277 28.0352 136.786 28.0352C134.55 28.0352 133.008 26.7354 133.008 24.6965C132.982 21.7146 135.244 20.2619 138.535 20.2619ZM140.591 22.6321H138.457C136.864 22.6321 136.247 23.2183 136.247 24.2887C136.247 25.0788 136.864 25.4356 137.84 25.4356C139.306 25.4356 140.154 24.7984 140.488 23.0909L140.591 22.6321Z" fill="white"/>
<path d="M154.447 18.7327C154.216 18.2485 153.856 17.7642 153.059 17.7642C151.851 17.7642 150.848 18.6563 150.489 20.4148L149.049 27.8313H145.784L148.252 15.2411H151.414L151.234 16.1331C151.825 15.5469 152.776 15.0117 154.165 15.0117C155.758 15.0117 156.761 15.9037 157.224 17.0251L154.447 18.7327Z" fill="white"/>
<path d="M161.825 17.9416H164.319L164.859 15.2145H162.365L162.905 12.4365H159.666L157.661 22.682L157.455 23.7524C156.864 26.9637 158.38 27.8047 161.002 27.8047H162.365L162.931 24.9758H161.877C160.694 24.9758 160.54 24.4405 160.771 23.1917L161.825 17.9416Z" fill="white"/>
</g>
<defs>
<clipPath id="clip0">
<rect width="170" height="38" fill="white"/>
</clipPath>
</defs>
</svg>
