<?xml version="1.0" encoding="UTF-8"?>
<svg width="80px" height="32px" viewBox="0 0 80 32" version="1.1" xmlns="http://www.w3.org/2000/svg" xmlns:xlink="http://www.w3.org/1999/xlink">
    <!-- Generator: Sketch 51.2 (57519) - http://www.bohemiancoding.com/sketch -->
    <title>color</title>
    <desc>Created with Sketch.</desc>
    <defs></defs>
    <g id="Page-1" stroke="none" stroke-width="1" fill="none" fill-rule="evenodd">
        <g id="color" fill="#9B9B9B">
            <path d="M63.067,21.687 L68.099,21.687 L68.099,5.877 L63.067,5.877 L63.067,21.687 Z M63.067,31.513 L68.099,31.513 L68.099,26.989 L63.067,26.989 L63.067,31.513 Z M74.208,10.697 L79.48,10.697 L79.48,5.877 L74.208,5.877 L74.208,10.697 Z M11.453,4.82 L16.445,4.82 L16.445,0 L11.453,0 L11.453,4.82 Z M0,25.933 L5.096,25.933 L5.096,21.363 L0,21.363 L0,25.933 Z M11.453,25.933 L16.445,25.933 L16.445,10.416 L11.453,10.416 L11.453,25.933 Z M37.879,5.877 L20.744,5.877 L20.744,10.697 L31.077,10.697 L20.461,21.237 L20.461,26.057 L37.879,26.057 L37.879,21.237 L27.59,21.237 L37.878,10.697 L37.879,5.877 Z M58.831,5.877 L41.697,5.877 L41.697,10.697 L52.03,10.697 L41.417,21.237 L41.417,26.057 L58.83,26.057 L58.83,21.237 L48.54,21.237 L58.83,10.697 L58.831,5.877 Z" id="Shape"></path>
        </g>
    </g>
</svg>