<svg xmlns="http://www.w3.org/2000/svg" width="20" height="20" viewBox="0 0 20 20">
    <g fill="none" fill-rule="nonzero">
        <path fill="#FFF" d="M19.076 19.532H0V.426h19.076z"/>
        <path fill="#006FCF" d="M19.076 10.774V.434H0V19.54h19.076v-5.574c-.042 0 0-3.192 0-3.192"/>
        <path fill="#FFF" d="M16.74 9.71h1.444V6.35h-1.572v.468l-.297-.468h-1.36v.596l-.255-.596H12.194c-.085 0-.17.042-.255.042-.085 0-.128.043-.213.086-.085.042-.127.042-.212.085V6.349h-7.18l-.213.553-.212-.553h-1.7v.596l-.255-.596H.594L0 7.796V9.71h.977l.17-.468h.34l.17.468h7.478v-.426l.297.426h2.082v-.255c.042.042.127.042.17.084.042.043.127.043.17.086.085.042.17.042.255.042h1.529l.17-.468h.34l.17.468H16.4v-.425l.34.468zm2.336 4.256v-3.149H7.393l-.298.426-.297-.426h-3.4v3.362h3.4l.297-.426.298.426h2.124v-.724h-.085c.297 0 .552-.042.765-.127v.893h1.53v-.425l.297.425h6.33c.255-.085.51-.127.722-.255z"/>
        <path fill="#006FCF" d="M18.354 13.157h-1.147v.469h1.105c.467 0 .764-.298.764-.724 0-.425-.255-.638-.68-.638h-.51c-.127 0-.212-.085-.212-.213s.085-.213.213-.213h.977l.212-.468H17.93c-.467 0-.765.298-.765.681 0 .426.255.638.68.638h.51c.128 0 .213.085.213.213.042.17-.043.255-.213.255zm-2.082 0h-1.147v.469h1.105c.467 0 .765-.298.765-.724 0-.425-.255-.638-.68-.638h-.51c-.128 0-.212-.085-.212-.213s.084-.213.212-.213h.977l.213-.468h-1.148c-.467 0-.764.298-.764.681 0 .426.255.638.68.638h.51c.127 0 .212.085.212.213.042.17-.085.255-.213.255zm-1.487-1.361v-.468h-1.784v2.255h1.784v-.468h-1.274v-.468h1.232v-.468H13.51v-.426h1.274v.043zm-2.889 0c.213 0 .298.127.298.255s-.085.255-.298.255h-.637v-.553l.637.043zm-.637.978h.255l.68.809h.637l-.765-.851c.383-.085.595-.34.595-.68 0-.426-.297-.724-.765-.724h-1.19v2.255h.51l.043-.809zm-1.36-.68c0 .17-.085.297-.297.297h-.68v-.595h.637c.213 0 .34.127.34.298zm-1.487-.766v2.255h.51v-.766h.68c.467 0 .807-.298.807-.766 0-.425-.297-.766-.765-.766l-1.232.043zm-.764 2.255h.637l-.892-1.149.892-1.106h-.637l-.553.723-.552-.723h-.637l.892 1.106-.892 1.106h.637l.552-.723.553.766zm-1.912-1.787v-.468H3.95v2.255h1.785v-.468H4.46v-.468h1.232v-.468H4.461v-.426h1.275v.043zm10.324-4l.892 1.361h.637V6.902h-.51v1.49l-.127-.213-.807-1.277h-.68v2.255h.51V7.626l.085.17zm-2.21-.043l.17-.468.17.468.213.51h-.765l.213-.51zm.893 1.404h.552l-.977-2.255h-.68l-.977 2.255h.552l.213-.468h1.104l.213.468zm-2.38 0l.213-.468h-.127c-.383 0-.595-.255-.595-.638V8.01c0-.383.212-.639.595-.639H13v-.468h-.595c-.68 0-1.062.468-1.062 1.107v.042c0 .68.382 1.106 1.02 1.106zm-1.911 0h.51V6.945h-.51V9.157zM9.347 7.37c.212 0 .297.128.297.256 0 .127-.085.255-.297.255H8.71v-.553l.637.042zm-.637.979h.255l.68.808h.637l-.765-.85c.382-.086.595-.341.595-.681 0-.426-.298-.724-.765-.724h-1.19v2.255h.51l.043-.808zm-.935-.979v-.468H5.991v2.255h1.784V8.69H6.5v-.468h1.233v-.468H6.5v-.425h1.275v.042zM3.909 9.157h.467l.637-1.83v1.83h.51V6.902h-.85l-.51 1.532-.51-1.532h-.849v2.255h.51v-1.83l.595 1.83zM1.147 7.753l.17-.468.17.468.212.51H.935l.212-.51zm.892 1.404h.553l-.978-2.255H.977L0 9.157h.552l.213-.468h1.104l.17.468z"/>
    </g>
</svg>
