<svg xmlns="http://www.w3.org/2000/svg" width="95" height="25" viewBox="0 0 95 25">
    <g fill="none" fill-rule="evenodd">
        <path fill="#FFF" d="M0 0h95v25H0z"/>
        <g fill="#EC1C2D" fill-rule="nonzero">
            <path d="M32.735 12.962h.086a.863.863 0 0 0 .866-.87v-.76c0-.448-.05-.66-.222-.896-.248-.31-.68-.448-1.101-.448H27.12V16.123h4.786c.544 0 1.188-.075 1.521-.436.31-.336.322-.597.322-1.418v-.274a1.017 1.017 0 0 0-1.014-1.033zm-4.094-1.854h3.166c.161 0 .495.063.495.324v.672c0 .211-.31.298-.433.298h-3.228v-1.294zm3.686 3.46a.334.334 0 0 1-.334.335H28.64v-1.368h3.327a.36.36 0 0 1 .359.36v.672zM41.133 16.123h1.795L39.3 9.988h-1.475l-3.565 6.135h1.603l.744-1.332h3.796l.73 1.332zm-3.86-2.526l1.244-2.215 1.218 2.215h-2.462zM50.214 9.988v3.086l.037.946-4.755-4.032H44.458v6.135h1.383v-3.086l-.037-.946 4.731 4.032h1.062V9.988zM59.878 16.123h-4.833c-.431 0-.9-.1-1.154-.398-.216-.237-.254-.647-.254-.983V11.37c0-.386.05-.797.304-1.046.254-.248.71-.336 1.104-.336h4.833c.431 0 .9.088 1.154.386.203.237.254.66.254.996v3.372c0 .348-.038.746-.254.983-.253.298-.723.398-1.154.398zm-4.693-4.903v3.671h4.554v-3.67h-4.554zM68.74 16.123h2.235l-2.856-2.26H69c.671 0 1.227-.522 1.227-1.18v-1.515c0-.646-.543-1.18-1.228-1.18H63.326v6.135h1.576v-2.26h1.254l2.584 2.26zm-3.838-4.955h3.463c.168 0 .297.124.297.286v.956c0 .161-.129.286-.297.286h-3.463v-1.528zM78.624 9.988H71.485v1.22h2.802v4.915h1.547v-4.915h2.79zM81.65 14.879v-1.37h2.833v-1.181H81.65V11.17h4.562V9.988h-6.058v6.135h6.119v-1.244zM17.17 7.432c-3.8 0-6.878 1.03-6.878 2.308 0 1.07 2.146 1.964 5.065 2.225l1.2-3.805.213 3.873h.413c3.798 0 6.877-1.03 6.877-2.307-.013-1.25-3.092-2.294-6.89-2.294"/>
            <path d="M14.881 11.522c-3.395.04-6.119 1.184-6.119 2.602 0 1.196 1.93 2.198 4.568 2.51l1.551-5.112zM16.411 12.033l.267 5.112c2.773-.26 4.833-1.304 4.833-2.543.012-1.278-2.193-2.347-5.1-2.569"/>
        </g>
    </g>
</svg>
