<svg xmlns="http://www.w3.org/2000/svg" width="84" height="22" viewBox="0 0 84 22">
    <g fill="none" fill-rule="evenodd">
        <path fill="#FFF" d="M.442 0H84v22H.442z"/>
        <g fill="#004481" fill-rule="nonzero">
            <path d="M53.35 5.414l-4.31 8.253c-.093.176-.36.176-.452 0l-4.311-8.253a.24.24 0 0 0-.218-.134h-2.088a.189.189 0 0 0-.168.277l6.793 12.79c.092.177.343.177.443 0l6.793-12.79a.189.189 0 0 0-.167-.277h-2.089c-.1 0-.184.05-.226.134zM55.72 16.586l4.31-8.253c.092-.176.36-.176.452 0l4.311 8.253a.24.24 0 0 0 .217.134H67.1a.189.189 0 0 0 .167-.277l-6.793-12.79c-.092-.177-.342-.177-.442 0l-6.793 12.79a.189.189 0 0 0 .167.277h2.089a.291.291 0 0 0 .225-.134zM26.635 11.372c.854-.454 1.384-1.437 1.384-2.639 0-2.058-1.51-3.453-3.637-3.453H18.27c-.134 0-.237.11-.237.252v12.696c0 .143.103.252.237.252h5.85c2.926 0 4.468-1.336 4.468-3.957 0-2.555-1.953-3.151-1.953-3.151zm-6.31-4.176h3.63c1.336 0 2.016.605 2.016 1.73 0 1.127-.68 1.731-2.016 1.731h-3.63a.246.246 0 0 1-.236-.252V7.448c0-.143.103-.252.237-.252zm3.677 9.368h-3.676c-.134 0-.237-.109-.237-.252v-3.504c0-.134.103-.252.237-.252h3.676c1.755 0 2.538.53 2.538 2-.008 1.487-.767 2.008-2.538 2.008zM39.836 11.372c.854-.454 1.384-1.437 1.384-2.639 0-2.058-1.51-3.453-3.637-3.453h-6.12c-.134 0-.236.11-.236.252v12.696c0 .143.102.252.237.252h5.85c2.925 0 4.467-1.336 4.467-3.957.008-2.555-1.945-3.151-1.945-3.151zm-6.309-4.176h3.63c1.335 0 2.015.605 2.015 1.73 0 1.127-.68 1.731-2.016 1.731h-3.629c-.134 0-.237-.109-.237-.252V7.448c0-.143.103-.252.237-.252zm3.669 9.368h-3.677a.246.246 0 0 1-.237-.252v-3.504c0-.134.103-.252.237-.252h3.677c1.755 0 2.537.53 2.537 2 0 1.487-.766 2.008-2.537 2.008z"/>
        </g>
    </g>
</svg>
