<svg xmlns="http://www.w3.org/2000/svg" width="95" height="25" viewBox="0 0 95 25">
    <g fill="none" fill-rule="evenodd">
        <path fill="#FFF" d="M0 0h95v25H0z"/>
        <g fill-rule="nonzero">
            <path fill="#EC2024" d="M81.435 13.109c-.385-.155-.77-.232-1.078-.31.154-.232.539-.62.77-.93.23-.31.385-.62.385-.852 0-.232-.077-.464-.231-.774-.308-.543-.77-1.007-1.232-1.395-.308-.232-.77-.542-1.232-.542-.23 0-.539.078-.693.387-.23.31-.462.62-.616.93a25.39 25.39 0 0 0-.693-1.007c-.384-.465-.615-.62-1.077-.62-.77 0-1.617.465-2.156.775-.385.31-.924.697-.924 1.317 0 .155.077.31.231.542l.693.93c-.308.077-.77.232-1.155.31-.77.232-1.078.62-1.078 1.626 0 .465.077.93.231 1.472.154.542.616 1.627 1.54 1.317.385-.155.77-.232 1.078-.387 0 .31-.077.62-.077 1.007 0 1.007.23 1.317.847 1.627a4.928 4.928 0 0 0 1.847.387c.616 0 1.694-.078 1.694-1.007V16.75c.231.077.77.31 1.155.387.231.078.462.155.616.155.308 0 .616-.155.924-.542.539-.62 1.078-1.782 1.078-2.557-.231-.542-.385-.93-.847-1.084m-6.698-2.711c.693-.543 1.386-.62 1.925-.62h.538c-.384.542-.538 1.007-.538 1.24 0-.078-.154-.388-.54-.388-.461 0-.923.31-1.231.31-.231 0-.308-.155-.308-.31 0-.077 0-.155.154-.232m-.847 3.486c0 .31 0 .542-.231.62-.154.077-.308 0-.385-.233-.385-1.085 0-2.092.231-2.479.385.465.77.775.924.93h-.154c-.385.077-.385.774-.385 1.162m2.618 2.866c-1.232 0-2.002-.697-2.31-1.007.308-.155.539-.233.77-.387.154-.078.308-.155.385-.31v.155c0 .542.693.697 1.078.774.308.078.538.233.538.388-.154.31-.23.387-.461.387m1.385-1.782c-.154-.155-.539-.31-1.154-.31-.616 0-1.001.078-1.232.31.077-.077.077-.232.077-.387 0-.233-.077-.465-.154-.775-.154-.542-.385-.93-.693-1.084.23 0 .616-.078 1.155-.465.462-.31.77-.697.847-1.007.077.232.23.542.77.93.461.31.923.542 1.231.464-.23.155-.462.388-.693 1.007-.077.388-.154.62-.154.852-.077.233-.077.388 0 .465m1.617.388c-.385.542-.924.93-1.232 1.084 0-.31-.077-.62-.077-.852 0-.155-.077-.31-.154-.465 0 0 .077.078.154.078.462.155.847-.465 1.078-.775.154-.232.308-.31.462-.31.077 0 .308.078.308.233-.077.154-.308.62-.539 1.007m-.462-2.79h-.23c.076-.077.23-.232.23-.387 0-.31-.308-.697-.462-.93-.154-.154-.23-.31-.23-.464 0-.155.153-.31.23-.31.077 0 .154 0 .231.078 1.001.697 1.232 1.704 1.309 2.169-.385-.078-.847-.155-1.078-.155M21.615 9.7h-1.54c-1.078-1.084-2.463-1.704-3.85-1.704-1.462 0-2.848.62-3.849 1.704h-1.54c1.155-1.781 3.234-2.943 5.39-2.943 2.155 0 4.234 1.24 5.389 2.943"/>
            <path fill="#104B84" d="M25.88 10.677c-.702 0-1.325.303-1.87.757v-2.65l-1.324.681v7.875h1.324v-.605c.39.378 1.09.757 1.792.757 1.402 0 2.804-1.06 2.804-3.332 0-2.423-1.325-3.483-2.727-3.483zm-.234 5.68c-.623 0-1.402-.455-1.636-.834v-2.726c.312-.454 1.013-.833 1.636-.833.934 0 1.635.757 1.635 2.348 0 1.287-.7 2.044-1.635 2.044zm15.812-2.727v3.71h-1.324v-3.71c0-1.287-.545-1.817-1.402-1.817-.857 0-1.402.606-1.402 1.666v3.786h-1.325v-6.512h1.325v.605c.311-.454 1.09-.757 1.713-.757 1.558.076 2.415.909 2.415 3.03zm-9.347-2.953c-.935 0-1.636.227-2.337.606l.467.984c.546-.303 1.09-.379 1.714-.379.779 0 1.324.38 1.324 1.136v.455c-.39-.152-.935-.228-1.558-.228-1.48 0-2.726.682-2.726 2.12 0 1.59 1.324 2.197 2.415 2.197a2.76 2.76 0 0 0 1.87-.758v.682h1.323v-4.468c.156-1.59-1.012-2.347-2.492-2.347zm1.324 4.846c-.312.379-.935.833-1.636.833-.857 0-1.324-.454-1.324-1.06 0-.606.545-.984 1.402-.984.701 0 1.246.075 1.558.302v.91zm11.762-4.846c-.935 0-1.714.227-2.337.606l.545.984c.546-.303 1.09-.379 1.714-.379.779 0 1.324.38 1.324 1.136v.455c-.39-.152-.935-.228-1.558-.228-1.48 0-2.726.682-2.726 2.12 0 1.59 1.324 2.197 2.337 2.197a2.76 2.76 0 0 0 1.87-.758v.682h1.323v-4.468c.156-1.59-.934-2.347-2.492-2.347zm1.324 4.846c-.312.379-.935.833-1.636.833-.857 0-1.324-.454-1.324-1.06 0-.606.545-.984 1.402-.984.701 0 1.246.075 1.558.302v.91zm11.762-1.969v3.786h-1.324v-3.71c0-1.287-.39-1.817-1.247-1.817-.857 0-1.246.606-1.246 1.666v3.786h-1.324v-3.71c0-1.288-.39-1.818-1.246-1.818-.857 0-1.325.606-1.325 1.666v3.786h-1.324v-6.512h1.324v.606c.312-.455.935-.758 1.636-.758.935 0 1.48.303 1.792.985.467-.606 1.012-.985 2.025-.985 1.48.152 2.259.833 2.259 3.03zm6.776.379c0-1.742-1.012-3.256-2.882-3.256-1.713 0-3.037 1.211-3.037 3.407 0 2.196 1.48 3.408 3.037 3.408 1.013 0 1.792-.303 2.415-.833l-.779-.833c-.467.303-1.012.53-1.558.53-.779 0-1.635-.53-1.791-1.742h4.595v-.681zm-4.595-.454c.078-1.06.779-1.666 1.635-1.666 1.091 0 1.636.757 1.636 1.666h-3.271zm10.36 3.861h-1.558l-.624-1.135c-.233-.455-.545-1.06-.7-1.288-.078.228-.468.909-.702 1.363l-.623 1.136h-1.48l2.026-3.407-1.87-3.18h1.558l.545.908c.234.454.623 1.06.701 1.287.156-.227.468-.908.701-1.363l.546-.908h1.48l-1.948 3.18 1.947 3.407zM6.016 14.084c0 1.212.857 2.12 2.103 2.12.545 0 1.168-.227 1.636-.757l.779.91c-.624.756-1.402 1.135-2.337 1.135-.935 0-1.792-.303-2.415-.909-.7-.606-1.012-1.514-1.012-2.499 0-1.06.389-1.893 1.012-2.498.623-.53 1.48-.91 2.415-.91s1.713.38 2.337 1.137l-.78.908c-.467-.454-1.012-.757-1.635-.757-1.246.076-2.103.909-2.103 2.12zm5.219-3.256h1.402v6.512h-1.402v-6.512zm6.776 5.15l.078-.076-.311 1.287c-.234.151-.624.303-1.247.303-.934 0-1.558-.682-1.558-1.742v-3.71h-1.168v-1.212h1.168V9.465l1.325-.681v2.044H17.7v1.212h-1.402v3.483c0 .53.155.757.623.757.39 0 .7-.151 1.09-.303zm1.09-5.15h1.403v6.512h-1.402v-6.512z"/>
        </g>
    </g>
</svg>
