<svg xmlns="http://www.w3.org/2000/svg" width="65" height="25" viewBox="0 0 65 25">
    <g fill="none" fill-rule="evenodd">
        <path fill="#FFF" d="M0 0h65v25H0z"/>
        <g fill-rule="nonzero">
            <path fill="#FFF" d="M15.066 6h12.806v12.838H15.066z"/>
            <path fill="#DB0011" d="M33.938 12.426L27.872 6v12.838zM21.47 12.081L27.871 6H15.066zM9 12.426l6.066 6.412V6zM21.47 12.757l-6.404 6.08h12.806z"/>
            <path fill="#000" d="M40.173 12.814h-2.36v2.308h-1.179V9.716h1.18v2.217h2.359V9.716h1.18v5.406h-1.18zM43.993 15.122c-1.074 0-1.953-.454-1.967-1.7H43.1c.014.557.321.894.907.894.432 0 .934-.234.934-.747 0-.41-.335-.528-.893-.703l-.362-.103c-.781-.234-1.562-.556-1.562-1.494 0-1.157 1.032-1.553 1.966-1.553.963 0 1.8.352 1.813 1.509H44.83c-.041-.469-.306-.747-.808-.747-.405 0-.795.22-.795.688 0 .381.334.499 1.032.733l.418.132c.85.278 1.395.586 1.395 1.465-.014 1.172-1.102 1.626-2.078 1.626zM46.745 9.722h1.771c.33-.016.672 0 1 .06.615.153 1.087.579 1.087 1.309 0 .7-.415 1.05-1.015 1.217.686.136 1.2.502 1.2 1.308 0 1.232-1.143 1.506-2.029 1.506h-2l-.014-5.4zm1.771 2.25c.486 0 .986-.106.986-.73 0-.562-.457-.714-.914-.714h-.772v1.445h.7zm.1 2.343c.515 0 1.015-.121 1.015-.79 0-.67-.429-.792-.957-.792h-.872v1.582h.815zM53.965 15.122c-1.734 0-2.502-1.067-2.502-2.66 0-1.592.859-2.746 2.562-2.746 1.07 0 2.11.468 2.14 1.636H54.96c-.06-.525-.422-.788-.935-.788-1.055 0-1.372 1.095-1.372 1.928s.317 1.797 1.327 1.797c.527 0 .92-.278.995-.804h1.206c-.12 1.198-1.1 1.637-2.216 1.637z"/>
        </g>
    </g>
</svg>
