<svg xmlns="http://www.w3.org/2000/svg" width="95" height="25" viewBox="0 0 95 25">
    <g fill="none" fill-rule="evenodd">
        <path fill="#FFF" d="M0 0h95v25H0z"/>
        <path fill="#EA1D25" fill-rule="nonzero" d="M19.012 11.664a3.088 3.088 0 0 0-.423-1.41l-2.212-3.898a3.36 3.36 0 0 1-.358-.95l-.098.163a3.127 3.127 0 0 0 0 3.113l1.79 3.113c.553.95.553 2.162 0 3.113l-.098.163a3.36 3.36 0 0 0-.358-.95l-1.627-2.85-1.041-1.835a3.36 3.36 0 0 1-.358-.95l-.098.163a3.127 3.127 0 0 0 0 3.113l1.79 3.113c.553.95.553 2.162 0 3.113l-.098.163a3.36 3.36 0 0 0-.358-.95l-2.245-3.899a3.48 3.48 0 0 1-.423-1.704c-2.375.623-4.035 1.966-4.035 3.506 0 2.163 3.19 3.9 7.126 3.9 3.938 0 7.127-1.737 7.127-3.9.032-1.474-1.595-2.818-4.003-3.44zm6.736 6.651c.033-.557.098-.917.26-1.376.749.36 1.725.524 2.441.524 1.237 0 1.952-.393 1.952-1.212 0-.786-.52-1.147-1.757-1.704l-.683-.262c-1.27-.557-2.115-1.278-2.115-2.687 0-1.54 1.074-2.523 3.221-2.523.879 0 1.692.131 2.44.393-.032.525-.13.95-.26 1.344a7.015 7.015 0 0 0-2.212-.393c-1.172 0-1.692.458-1.692 1.18 0 .687.52 1.113 1.464 1.506l.716.295c1.692.721 2.408 1.508 2.408 2.818 0 1.54-1.172 2.622-3.45 2.622-1.073 0-1.984-.164-2.733-.525zm13.374-6.455v6.75h-1.366l-.066-.819c-.39.59-.943.983-1.887.983-1.757 0-2.961-1.31-2.961-3.572 0-2.359 1.27-3.735 3.742-3.735.976.033 1.79.131 2.538.393zm-1.464 5.21v-4.227c-.293-.065-.65-.065-1.074-.065-1.53 0-2.245.95-2.245 2.457 0 1.376.553 2.36 1.855 2.36a2.544 2.544 0 0 0 1.464-.525zm9.014-2.982v4.522h-1.465v-4.26c0-1.08-.358-1.572-1.822-1.572-.358 0-.748.033-1.171.098v5.734h-1.465v-6.75c.944-.229 1.985-.393 2.669-.393 2.473.033 3.254.983 3.254 2.621zm4.1 3.44c.423 0 .846-.065 1.139-.196-.033.393-.098.852-.163 1.245-.39.164-.846.23-1.237.23-1.431 0-2.343-.656-2.343-2.294v-7.11c.456-.164 1.01-.23 1.465-.23v2.556h2.343c-.033.459-.065.885-.13 1.278h-2.213v3.31c0 .851.423 1.212 1.139 1.212zm7.907-5.668v6.75h-1.367l-.065-.819c-.39.59-.943.983-1.887.983-1.757 0-2.961-1.31-2.961-3.572 0-2.359 1.269-3.735 3.742-3.735.976.033 1.757.131 2.538.393zm-1.497 5.21v-4.227c-.293-.065-.65-.065-1.074-.065-1.53 0-2.245.95-2.245 2.457 0 1.376.553 2.36 1.855 2.36.618-.033 1.106-.23 1.464-.525zm9.046-2.982v4.522h-1.496v-4.26c0-1.08-.358-1.572-1.823-1.572-.358 0-.748.033-1.171.098v5.734h-1.465v-6.75c.944-.229 1.985-.393 2.669-.393 2.473.033 3.286.983 3.286 2.621zm7.452-4.914v9.436h-1.367l-.065-.852c-.39.623-.943 1.016-1.92 1.016-1.757 0-2.96-1.31-2.96-3.572 0-2.359 1.268-3.735 3.741-3.735.39 0 .749.033 1.107.098V9.337c.455-.13.976-.163 1.464-.163zm-1.464 7.896V12.91c-.39-.066-.781-.131-1.172-.131-1.464 0-2.147.917-2.147 2.457 0 1.376.553 2.36 1.854 2.36a2.633 2.633 0 0 0 1.465-.525zm8.883-1.343h-4.718c.195 1.212.879 1.77 2.213 1.77.813 0 1.627-.165 2.343-.525-.065.393-.13.917-.228 1.343-.684.295-1.367.426-2.18.426-2.473 0-3.645-1.376-3.645-3.67 0-1.998.911-3.604 3.254-3.604 2.115 0 3.026 1.376 3.026 3.08 0 .459 0 .787-.065 1.18zm-4.718-1.245h3.32c0-1.114-.587-1.77-1.595-1.77-1.074.033-1.627.623-1.725 1.77zm9.892-2.917c0 .46-.065.983-.13 1.278-.358-.032-.683-.065-1.106-.065-.358 0-.716.033-1.074.065v5.767h-1.464v-6.75c.618-.229 1.692-.393 2.505-.393.423.033.944.033 1.27.098z"/>
    </g>
</svg>
