<svg xmlns="http://www.w3.org/2000/svg" width="98" height="22" viewBox="0 0 98 22">
    <g fill="none" fill-rule="nonzero">
        <path fill="#F00" d="M30.253 3.4A3.88 3.88 0 0 0 27.53.665C25.113 0 15.444 0 15.444 0S5.776 0 3.36.64C2.06.996.992 2.07.636 3.4 0 5.828 0 10.865 0 10.865s0 5.061.636 7.464a3.88 3.88 0 0 0 2.723 2.735c2.442.665 12.085.665 12.085.665s9.669 0 12.086-.64a3.88 3.88 0 0 0 2.723-2.734c.636-2.429.636-7.465.636-7.465s.025-5.062-.636-7.49z"/>
        <path fill="#FFF" d="M12.366 15.517l8.04-4.652-8.04-4.653z"/>
        <g fill="#282828">
            <path d="M45.166 20.03c-.611-.408-1.044-1.046-1.298-1.94-.255-.868-.382-2.043-.382-3.472v-1.966c0-1.456.153-2.63.433-3.524.305-.893.763-1.532 1.374-1.94.636-.409 1.45-.613 2.469-.613.992 0 1.807.204 2.417.613.611.408 1.044 1.072 1.324 1.94.28.868.433 2.043.433 3.524v1.966c0 1.455-.128 2.604-.408 3.498-.28.868-.712 1.531-1.323 1.94-.61.409-1.45.613-2.494.613-1.07-.026-1.934-.23-2.545-.639zm3.436-2.144c.178-.434.254-1.175.254-2.17v-4.239c0-.97-.076-1.685-.254-2.144-.179-.46-.459-.664-.891-.664-.407 0-.713.23-.866.664-.178.46-.254 1.174-.254 2.144v4.239c0 .995.076 1.736.254 2.17.153.434.459.664.891.664.407 0 .687-.205.866-.664zM92.148 14.643v.69c0 .868.025 1.532.076 1.966.05.434.153.766.33.944.153.204.408.307.764.307.458 0 .764-.18.942-.537.178-.357.254-.944.28-1.787l2.621.153c.026.128.026.281.026.486 0 1.25-.331 2.195-1.018 2.808s-1.655.92-2.902.92c-1.501 0-2.545-.486-3.155-1.43-.611-.945-.917-2.4-.917-4.392v-2.375c0-2.042.306-3.523.942-4.468.636-.944 1.705-1.404 3.207-1.404 1.043 0 1.858.204 2.418.587s.941.996 1.17 1.788c.23.817.331 1.94.331 3.37v2.323h-5.115v.051zm.381-5.719c-.152.204-.254.51-.305.945-.051.434-.076 1.098-.076 1.991v.97h2.24v-.97c0-.868-.026-1.532-.077-1.991-.051-.46-.178-.766-.331-.945-.153-.179-.407-.28-.713-.28-.356-.026-.585.076-.738.28zM37.734 14.388L34.273 1.8H37.3l1.222 5.693a60.54 60.54 0 0 1 .687 3.6h.077c.101-.715.33-1.89.687-3.574l1.272-5.72h3.029l-3.512 12.588v6.025H37.76v-6.025h-.026zM61.785 6.83V20.44h-2.392l-.255-1.66h-.076c-.637 1.251-1.63 1.89-2.927 1.89-.89 0-1.553-.307-1.985-.894-.433-.587-.636-1.506-.636-2.783V6.83h3.054v9.983c0 .613.076 1.047.203 1.303.127.255.357.383.662.383.254 0 .509-.077.763-.256.255-.153.433-.357.535-.613V6.83h3.054zM77.437 6.83V20.44h-2.392l-.255-1.66h-.076c-.636 1.251-1.629 1.89-2.927 1.89-.89 0-1.552-.307-1.985-.894-.433-.587-.636-1.506-.636-2.783V6.83h3.054v9.983c0 .613.076 1.047.203 1.303.128.255.357.383.662.383.255 0 .51-.077.764-.256.254-.153.432-.357.534-.613V6.83h3.054z"/>
            <path d="M70.082 4.277h-3.029v16.136h-2.977V4.277h-3.03V1.801h9.036v2.476zM87.541 9c-.178-.867-.484-1.48-.89-1.863-.408-.383-.993-.587-1.706-.587-.56 0-1.094.153-1.578.485a3.12 3.12 0 0 0-1.12 1.25h-.025V1.112H79.27v19.302h2.52l.305-1.276h.076c.229.46.585.817 1.069 1.098.483.255.992.408 1.578.408 1.043 0 1.781-.485 2.265-1.43.483-.944.738-2.45.738-4.468v-2.144c-.025-1.558-.102-2.758-.28-3.6zm-2.8 5.541c0 .996-.05 1.762-.127 2.324-.076.561-.229.97-.407 1.2a.99.99 0 0 1-.764.357c-.254 0-.483-.051-.687-.179a1.472 1.472 0 0 1-.509-.536v-7.71a2.09 2.09 0 0 1 .535-.92c.254-.23.534-.357.814-.357.306 0 .56.127.713.357.178.256.28.664.356 1.226.076.587.102 1.404.102 2.45v1.788h-.026z"/>
        </g>
    </g>
</svg>
