<?xml version="1.0" encoding="UTF-8"?>
<svg width="35px" height="25px" viewBox="0 0 35 25" version="1.1" xmlns="http://www.w3.org/2000/svg" xmlns:xlink="http://www.w3.org/1999/xlink">
    <!-- Generator: Sketch 55.2 (78181) - https://sketchapp.com -->
    <title>youtube-logo</title>
    <desc>Created with Sketch.</desc>
    <g id="Page-1" stroke="none" stroke-width="1" fill="none" fill-rule="evenodd">
        <g id="youtube-logo" fill-rule="nonzero">
            <path d="M34.2792179,3.91182291 C33.8738844,2.38109241 32.6995433,1.18340978 31.1938277,0.76510654 C28.4551614,0 17.4993634,0 17.4993634,0 C17.4993634,0 6.54469846,0 3.80716531,0.736343136 C2.33415492,1.14593401 1.12402023,2.38160983 0.720642005,3.91182291 C0,6.70532468 0,12.5005753 0,12.5005753 C0,12.5005753 0,18.3234387 0.720642005,21.0881771 C1.12597555,22.6189076 2.30031662,23.8165902 3.80603223,24.2348935 C6.57302559,25 17.4993634,25 17.4993634,25 C17.4993634,25 28.4551614,25 31.1938277,24.2636569 C32.6992566,23.8455608 33.8735359,22.648379 34.2792179,21.118091 C35,18.3234387 35,12.5293387 35,12.5293387 C35,12.5293387 35.028187,6.70532468 34.2792179,3.91182291 L34.2792179,3.91182291 Z" id="Path" fill="#FF0000"></path>
            <polygon id="Path" fill="#FFFFFF" points="14 18 23 12.5005911 14 7"></polygon>
        </g>
    </g>
</svg>