<svg xmlns="http://www.w3.org/2000/svg" xmlns:xlink="http://www.w3.org/1999/xlink" width="80" height="47" viewBox="0 0 80 47">
    <defs>
        <rect id="a" width="72" height="39" x="4" y="4" rx="2.759"/>
    </defs>
    <g fill="none" fill-rule="evenodd">
        <rect width="80" height="47" fill="#E3E3E3" rx="2.759"/>
        <use fill="#BFE2D2" xlink:href="#a"/>
        <rect width="70" height="37" x="5" y="5" stroke="#8F9C95" stroke-width="2" rx="2.759"/>
        <ellipse cx="40" cy="23.5" fill="#8F9C95" rx="8" ry="10.5"/>
        <path fill="#343333" d="M13.2 16.955v-4.744L12 13.256v-1.161l1.2-1.045h1.076v5.905H13.2zm2.93 0v-.97l2.201-2.563c.11-.127.189-.243.236-.348a.888.888 0 0 0 .07-.365c0-.222-.06-.4-.182-.535-.121-.136-.298-.204-.53-.204a.929.929 0 0 0-.26.038.61.61 0 0 0-.397.357.92.92 0 0 0-.062.36H16.13c0-.27.045-.513.136-.726.091-.212.218-.394.38-.543.164-.15.354-.262.572-.34a2.1 2.1 0 0 1 .708-.116c.259 0 .499.04.72.12.22.08.41.194.566.34.158.147.28.327.369.54.088.212.132.451.132.717 0 .144-.014.272-.041.386a1.556 1.556 0 0 1-.12.327 1.839 1.839 0 0 1-.199.311c-.08.103-.17.212-.269.328l-1.647 1.916h2.276v.97H16.13zm8.102-1.708c0 .293-.05.55-.15.77a1.55 1.55 0 0 1-.405.553c-.17.146-.37.255-.596.327a2.364 2.364 0 0 1-.72.108c-.242 0-.475-.033-.699-.1a1.706 1.706 0 0 1-.596-.31 1.54 1.54 0 0 1-.418-.54 1.898 1.898 0 0 1-.165-.792h1.076c.005.133.03.248.074.344a.686.686 0 0 0 .426.382 1 1 0 0 0 .302.046c.232 0 .422-.071.571-.212.15-.141.224-.344.224-.61 0-.248-.072-.446-.215-.593-.144-.146-.348-.22-.613-.22h-.157v-.937h.157c.265 0 .455-.07.571-.211a.802.802 0 0 0 .174-.527c0-.249-.072-.437-.215-.564a.737.737 0 0 0-.505-.19.723.723 0 0 0-.509.186c-.135.124-.208.3-.22.527H20.55a1.75 1.75 0 0 1 .153-.71 1.614 1.614 0 0 1 .952-.858c.218-.077.45-.116.7-.116.258 0 .498.041.72.124.22.083.41.2.57.349.16.15.284.327.373.535.088.207.132.435.132.684 0 .32-.065.576-.195.767-.13.191-.29.339-.484.444.21.11.39.272.538.485.15.213.224.5.224.859zm4.096.87v.838h-1.034v-.838h-2.408v-1.02l2.019-4.047h1.175l-2.02 4.047h1.234v-1.103h1.034v1.103h.538v1.02h-.538z"/>
        <path fill="#D31772" fill-rule="nonzero" d="M20.5 24a9.5 9.5 0 1 0 0-19 9.5 9.5 0 0 0 0 19zm0 2C14.149 26 9 20.851 9 14.5S14.149 3 20.5 3 32 8.149 32 14.5 26.851 26 20.5 26zM59.5 24a9.5 9.5 0 1 0 0-19 9.5 9.5 0 0 0 0 19zm0 2C53.149 26 48 20.851 48 14.5S53.149 3 59.5 3 71 8.149 71 14.5 65.851 26 59.5 26z"/>
        <path fill="#343333" d="M53.2 16.955v-4.744L52 13.256v-1.161l1.2-1.045h1.076v5.905H53.2zm2.93 0v-.97l2.201-2.563c.11-.127.189-.243.236-.348a.888.888 0 0 0 .07-.365c0-.222-.06-.4-.182-.535-.121-.136-.298-.204-.53-.204a.929.929 0 0 0-.26.038.61.61 0 0 0-.397.357.92.92 0 0 0-.062.36H56.13c0-.27.045-.513.136-.726.091-.212.218-.394.38-.543.164-.15.354-.262.572-.34a2.1 2.1 0 0 1 .708-.116c.259 0 .499.04.72.12.22.08.41.194.566.34.158.147.28.327.369.54.088.212.132.451.132.717 0 .144-.014.272-.041.386a1.556 1.556 0 0 1-.12.327 1.839 1.839 0 0 1-.199.311c-.08.103-.17.212-.269.328l-1.647 1.916h2.276v.97H56.13zm8.102-1.708c0 .293-.05.55-.15.77a1.55 1.55 0 0 1-.405.553c-.17.146-.37.255-.596.327a2.364 2.364 0 0 1-.72.108c-.242 0-.475-.033-.699-.1a1.706 1.706 0 0 1-.596-.31 1.54 1.54 0 0 1-.418-.54 1.898 1.898 0 0 1-.165-.792h1.076c.005.133.03.248.074.344a.686.686 0 0 0 .426.382 1 1 0 0 0 .302.046c.232 0 .422-.071.571-.212.15-.141.224-.344.224-.61 0-.248-.072-.446-.215-.593-.144-.146-.348-.22-.613-.22h-.157v-.937h.157c.265 0 .455-.07.571-.211a.802.802 0 0 0 .174-.527c0-.249-.072-.437-.215-.564a.737.737 0 0 0-.505-.19.723.723 0 0 0-.509.186c-.135.124-.208.3-.22.527H60.55a1.75 1.75 0 0 1 .153-.71 1.614 1.614 0 0 1 .952-.858c.218-.077.45-.116.7-.116.258 0 .498.041.72.124.22.083.41.2.57.349.16.15.284.327.373.535.088.207.132.435.132.684 0 .32-.065.576-.195.767-.13.191-.29.339-.484.444.21.11.39.272.538.485.15.213.224.5.224.859zm4.096.87v.838h-1.034v-.838h-2.408v-1.02l2.019-4.047h1.175l-2.02 4.047h1.234v-1.103h1.034v1.103h.538v1.02h-.538z"/>
    </g>
</svg>
