<?xml version="1.0" encoding="UTF-8"?>
<svg width="24px" height="24px" viewBox="0 0 24 24" version="1.1" xmlns="http://www.w3.org/2000/svg" xmlns:xlink="http://www.w3.org/1999/xlink">
    <!-- Generator: Sketch 47.1 (45422) - http://www.bohemiancoding.com/sketch -->
    <title>Mask</title>
    <desc>Created with Sketch.</desc>
    <defs>
        <path d="M23.1,13.8 C23.5,13.2 23.5672856,13.0868953 23.9,12.5 C24.0247937,12.303385 24.0349505,11.9050098 23.9349505,11.6050098 C23.8349505,11.3050098 23.5217849,10.8277494 23.1,10.2 C22.5,9.2 21.5464844,7.91051683 20.6464844,7.01051683 C18.1464844,4.21051683 15.4,3 12,3 C9.9,3 8,3.6 6.2,4.8 L2.2,0.8 L0.7,2.1 L4.6,6 C4.1,6.4 3.6,6.9 3.2,7.3 C2.3,8.2 1.6,9.2 0.9,10.2 C0.5,10.8 0.3,11.3 0.1,11.5 C3.50414142e-16,11.8 3.50414142e-16,12.1 0.1,12.4 C0.2,12.7 0.5,13.2 0.9,13.7 C1.5,14.7 2.03883714,15.4522236 3.2,16.7 C5.14122596,18.8136268 8.17210036,21 12,21 C14.1,21 16,20.4 17.8,19.2 L21.8,23.2 L23.2,21.8 L19.4,18 C19.9,17.6 20.4,17.1 20.8,16.7 C21.7,15.8 22.5,14.8 23.1,13.8 Z M12,19 C9.3,19 6.8,17.6 4.6,15.3 C3.8,14.5 3.1,13.6 2.6,12.7 C2.4,12.4 2.3,12.2 2.2,12 C2.3,11.8 2.5,11.5 2.6,11.3 C3.2,10.4 3.9,9.5 4.6,8.7 C5,8.2 5.5,7.8 6,7.4 L8.6,10 C8.2,10.6 8,11.3 8,12 C8,14.2 9.8,16 12,16 C12.7,16 13.4,15.8 14,15.4 L16.3,17.7 C15,18.6 13.5,19 12,19 Z M13.9,12.5 L11.5,10.1 C11.7,10.1 11.8,10 12,10 C13.1,10 14,10.9 14,12 C14,12.2 14,12.3 13.9,12.5 Z M12.5,13.9 C12.3,14 12.2,14 12,14 C10.9,14 10,13.1 10,12 C10,11.8 10,11.7 10.1,11.5 L12.5,13.9 Z M15.4,14 C15.8,13.4 16,12.7 16,12 C16,9.8 14.2,8 12,8 C11.3,8 10.6,8.2 10,8.6 L7.6,6.2 C9,5.4 10.5,5 12,5 C14.7,5 17.2,6.4 19.4,8.7 C20.2,9.5 20.9,10.4 21.4,11.3 C21.6,11.6 21.7,11.8 21.8,12 C21.7,12.2 21.5,12.5 21.4,12.7 C20.8,13.6 20.1,14.5 19.4,15.3 C19,15.8 18.5,16.2 18,16.6 L15.4,14 Z" id="path-1"></path>
    </defs>
    <g id="Symbols" stroke="none" stroke-width="1" fill="none" fill-rule="evenodd">
        <g id="Atoms/Icons/Eye-close">
            <g id="Atoms/Icons/Phone">
                <g id="Atoms/Bg/Info">
                    <mask id="mask-2" fill="white">
                        <use xlink:href="#path-1"></use>
                    </mask>
                    <use id="Mask" fill="#000000" fill-rule="nonzero" xlink:href="#path-1"></use>
                </g>
            </g>
        </g>
    </g>
</svg>