<?xml version="1.0" encoding="UTF-8"?>
<svg width="14px" height="19px" viewBox="0 0 14 19" version="1.1" xmlns="http://www.w3.org/2000/svg" xmlns:xlink="http://www.w3.org/1999/xlink">
    <!-- Generator: Sketch 51.1 (57501) - http://www.bohemiancoding.com/sketch -->
    <title>Shape</title>
    <desc>Created with Sketch.</desc>
    <defs></defs>
    <g id="Page-1" stroke="none" stroke-width="1" fill="none" fill-rule="evenodd">
        <g id="lock-2" fill="#4A4A4A" fill-rule="nonzero">
            <g id="baseline-https-24px" transform="translate(0.000000, 0.000000)">
                <path d="M12,6.66666667 L11.1666667,6.66666667 L11.1666667,5 C11.1666667,2.7 9.3,0.833333333 7,0.833333333 C4.7,0.833333333 2.83333333,2.7 2.83333333,5 L2.83333333,6.66666667 L2,6.66666667 C1.08333333,6.66666667 0.33333333,7.41666667 0.33333333,8.33333333 L0.33333333,16.6666667 C0.33333333,17.5833333 1.08333333,18.3333333 2,18.3333333 L12,18.3333333 C12.9166667,18.3333333 13.6666667,17.5833333 13.6666667,16.6666667 L13.6666667,8.33333333 C13.6666667,7.41666667 12.9166667,6.66666667 12,6.66666667 Z M7,14.1666667 C6.08333333,14.1666667 5.33333333,13.4166667 5.33333333,12.5 C5.33333333,11.5833333 6.08333333,10.8333333 7,10.8333333 C7.9166667,10.8333333 8.6666667,11.5833333 8.6666667,12.5 C8.6666667,13.4166667 7.9166667,14.1666667 7,14.1666667 Z M9.5833333,6.66666667 L4.41666667,6.66666667 L4.41666667,5 C4.41666667,3.575 5.575,2.41666667 7,2.41666667 C8.425,2.41666667 9.5833333,3.575 9.5833333,5 L9.5833333,6.66666667 Z" id="Shape"></path>
            </g>
        </g>
    </g>
</svg>