<?xml version="1.0" encoding="UTF-8"?>
<svg width="35px" height="25px" viewBox="0 0 35 25" version="1.1" xmlns="http://www.w3.org/2000/svg" xmlns:xlink="http://www.w3.org/1999/xlink">
    <!-- Generator: sketchtool 50.2 (55047) - http://www.bohemiancoding.com/sketch -->
    <title>0BD4C31B-73BD-4959-A359-5FC7FBB9E797</title>
    <desc>Created with sketchtool.</desc>
    <defs></defs>
    <g id="Page-flujo-Gris" stroke="none" stroke-width="1" fill="none" fill-rule="evenodd">
        <g id="03-Pago" transform="translate(-838.000000, -417.000000)">
            <g id="Group-9" transform="translate(838.000000, 417.000000)">
                <g id="mastercard-copy">
                    <rect id="mastercard-bg" fill="#FFFFFF" x="0" y="0" width="35" height="25" rx="3.31578947"></rect>
                    <g id="mastercard-logo" transform="translate(6.263158, 5.597015)">
                        <path d="M11.4210526,1.77599039 C12.6112311,0.747710954 14.1550918,0.126959854 15.8421053,0.126959854 C19.6063618,0.126959854 22.6578947,3.21753154 22.6578947,7.02994493 C22.6578947,10.8423583 19.6063618,13.93293 15.8421053,13.93293 C14.1550918,13.93293 12.6112311,13.3121789 11.4210526,12.2838995 C10.2308742,13.3121789 8.68701349,13.93293 7,13.93293 C3.23574342,13.93293 0.184210526,10.8423583 0.184210526,7.02994493 C0.184210526,3.21753154 3.23574342,0.126959854 7,0.126959854 C8.68701349,0.126959854 10.2308742,0.747710954 11.4210526,1.77599039 Z" id="Combined-Shape" fill="#FF5E00"></path>
                        <path d="M11.4210526,1.77599039 C9.95556941,3.0421251 9.02631579,4.9261273 9.02631579,7.02994493 C9.02631579,9.13376256 9.95556941,11.0177648 11.4210526,12.2838995 C10.2308742,13.3121789 8.68701349,13.93293 7,13.93293 C3.23574342,13.93293 0.184210526,10.8423583 0.184210526,7.02994493 C0.184210526,3.21753154 3.23574342,0.126959854 7,0.126959854 C8.68701349,0.126959854 10.2308742,0.747710954 11.4210526,1.77599039 Z" id="Combined-Shape" fill="#ED0006"></path>
                        <path d="M11.4210526,12.2838995 C12.8865358,11.0177648 13.8157895,9.13376256 13.8157895,7.02994493 C13.8157895,4.9261273 12.8865358,3.0421251 11.4210526,1.77599039 C12.6112311,0.747710954 14.1550918,0.126959854 15.8421053,0.126959854 C19.6063618,0.126959854 22.6578947,3.21753154 22.6578947,7.02994493 C22.6578947,10.8423583 19.6063618,13.93293 15.8421053,13.93293 C14.1550918,13.93293 12.6112311,13.3121789 11.4210526,12.2838995 Z" id="Combined-Shape" fill="#F9A000"></path>
                    </g>
                </g>
            </g>
        </g>
    </g>
</svg>