<svg xmlns="http://www.w3.org/2000/svg" width="80" height="47" viewBox="0 0 80 47">
    <g fill="none" fill-rule="evenodd">
        <rect width="80" height="47" fill="#E3E3E3" rx="2.759"/>
        <path fill="#343333" d="M0 7h80v10H0z"/>
        <path fill="#FFF" d="M7 21h45v10H7z"/>
        <path fill="#313E66" d="M58.4 28.948v-5.535L57 24.632v-1.355l1.4-1.219h1.255v6.89H58.4zm3.418 0v-1.132l2.568-2.99c.129-.149.22-.284.275-.407.055-.122.082-.264.082-.426 0-.258-.07-.466-.212-.624-.142-.158-.348-.237-.618-.237-.103 0-.204.015-.304.044a.713.713 0 0 0-.463.416 1.073 1.073 0 0 0-.073.42h-1.255c0-.315.053-.598.16-.846.105-.248.253-.46.443-.634s.412-.306.667-.397c.254-.09.529-.135.825-.135.303 0 .583.047.84.14.258.094.478.226.661.397.184.171.327.38.43.629.103.248.155.527.155.837 0 .168-.016.318-.049.45-.032.132-.079.26-.14.382a2.145 2.145 0 0 1-.231.363c-.094.12-.198.247-.314.382l-1.922 2.236H66v1.132h-4.181zm9.452-1.994c0 .342-.058.642-.173.9a1.808 1.808 0 0 1-.474.644c-.2.17-.43.298-.695.382a2.758 2.758 0 0 1-.84.126 2.85 2.85 0 0 1-.816-.116 1.99 1.99 0 0 1-.695-.363 1.797 1.797 0 0 1-.487-.63c-.123-.254-.187-.562-.193-.923h1.255c.006.155.035.288.087.401a.8.8 0 0 0 .497.445c.113.036.23.054.352.054a.93.93 0 0 0 .666-.247c.174-.165.261-.402.261-.711 0-.29-.084-.521-.25-.692-.168-.171-.406-.257-.715-.257h-.184v-1.093h.184c.309 0 .53-.082.666-.247a.936.936 0 0 0 .203-.614c0-.29-.084-.51-.251-.658a.86.86 0 0 0-.59-.223.843.843 0 0 0-.593.218c-.158.145-.243.35-.256.614h-1.255c.006-.31.066-.585.178-.827.113-.242.263-.447.45-.614.186-.168.407-.297.66-.388A2.42 2.42 0 0 1 69.08 22c.302 0 .582.048.84.145.257.097.48.232.666.407.186.174.331.382.434.624.103.242.155.508.155.798 0 .374-.076.673-.227.895-.151.223-.34.395-.565.518.245.129.454.317.628.566.173.248.26.582.26 1.001z"/>
        <path fill="#D31772" fill-rule="nonzero" d="M64 36c5.523 0 10-4.477 10-10s-4.477-10-10-10-10 4.477-10 10 4.477 10 10 10zm0 2c-6.627 0-12-5.373-12-12s5.373-12 12-12 12 5.373 12 12-5.373 12-12 12z"/>
    </g>
</svg>
