<svg style="position: absolute; width: 0; height: 0; overflow: hidden;" version="1.1" xmlns="http://www.w3.org/2000/svg" xmlns:xlink="http://www.w3.org/1999/xlink">
<defs>
<symbol id="icon-minus" viewBox="0 0 192 32">
<title>minus</title>
<path d="M16 32h160c8.837 0 16-7.163 16-16s-7.163-16-16-16h-160c-8.837 0-16 7.163-16 16s7.163 16 16 16z"></path>
</symbol>
<symbol id="icon-plus" viewBox="0 0 32 32">
<title>plus</title>
<path d="M13.333 2.667v26.667c0 1.473 1.194 2.667 2.667 2.667s2.667-1.194 2.667-2.667v-26.667c0-1.473-1.194-2.667-2.667-2.667s-2.667 1.194-2.667 2.667z"></path>
<path d="M2.667 18.667h26.667c1.473 0 2.667-1.194 2.667-2.667s-1.194-2.667-2.667-2.667h-26.667c-1.473 0-2.667 1.194-2.667 2.667s1.194 2.667 2.667 2.667z"></path>
</symbol>
<symbol id="icon-angle-right" viewBox="0 0 18 32">
<title>angle-right</title>
<path d="M12.768 16l-12.098 12.098c-0.893 0.893-0.893 2.34 0 3.233s2.34 0.893 3.232 0l13.714-13.714c0.893-0.893 0.893-2.34 0-3.232l-13.714-13.714c-0.893-0.893-2.34-0.893-3.232 0s-0.893 2.34 0 3.232l12.098 12.098z"></path>
</symbol>
<symbol id="icon-angle-left" viewBox="0 0 18 32">
<title>angle-left</title>
<path d="M5.518 16l12.098 12.098c0.893 0.893 0.893 2.34 0 3.233s-2.34 0.893-3.232 0l-13.714-13.714c-0.893-0.893-0.893-2.34 0-3.232l13.714-13.714c0.893-0.893 2.34-0.893 3.232 0s0.893 2.34 0 3.232l-12.098 12.098z"></path>
</symbol>
<symbol id="icon-loader" viewBox="0 0 32 32">
<title>loader</title>
<path d="M16 32c8.837 0 16-7.163 16-16s-7.163-16-16-16c-8.837 0-16 7.163-16 16 0 1.607 1.302 2.909 2.909 2.909s2.909-1.302 2.909-2.909c0-5.623 4.559-10.182 10.182-10.182s10.182 4.559 10.182 10.182c0 5.623-4.559 10.182-10.182 10.182-1.607 0-2.909 1.302-2.909 2.909s1.302 2.909 2.909 2.909z"></path>
</symbol>
<symbol id="icon-check" viewBox="0 0 43 32">
<title>check</title>
<path d="M13.913 24.974l-9.67-9.67-3.293 3.27 12.963 12.963 27.826-27.826-3.27-3.27z"></path>
</symbol>
<symbol id="icon-error" viewBox="0 0 30 32">
<title>error</title>
<path d="M26.698 26.225l-8.269-5.198 0.315 9.844h-7.245l0.394-9.844-8.348 5.198-3.544-6.222 8.663-4.568-8.663-4.568 3.544-6.3 8.348 5.277-0.394-9.844h7.245l-0.315 9.844 8.269-5.277 3.623 6.3-8.742 4.568 8.742 4.568z"></path>
</symbol>
<symbol id="icon-lock" viewBox="0 0 24 32">
<title>lock</title>
<path d="M20.211 11.228h-1.404v-2.807c0-3.874-3.144-7.018-7.018-7.018s-7.018 3.144-7.018 7.018v2.807h-1.404c-1.544 0-2.807 1.263-2.807 2.807v14.035c0 1.544 1.263 2.807 2.807 2.807h16.842c1.544 0 2.807-1.263 2.807-2.807v-14.035c0-1.544-1.263-2.807-2.807-2.807zM11.789 23.86c-1.544 0-2.807-1.263-2.807-2.807s1.263-2.807 2.807-2.807c1.544 0 2.807 1.263 2.807 2.807s-1.263 2.807-2.807 2.807zM16.14 11.228h-8.702v-2.807c0-2.4 1.951-4.351 4.351-4.351s4.351 1.951 4.351 4.351v2.807z"></path>
</symbol>
<symbol id="icon-close" viewBox="0 0 32 32">
<title>close</title>
<path d="M19.233 16l12.098-12.098c0.893-0.893 0.893-2.34 0-3.232s-2.34-0.893-3.233 0l-12.098 12.098-12.098-12.098c-0.893-0.893-2.34-0.893-3.232 0s-0.893 2.34 0 3.232l12.098 12.098-12.098 12.098c-0.893 0.893-0.893 2.34 0 3.233s2.34 0.893 3.232 0l12.098-12.098 12.098 12.098c0.893 0.893 2.34 0.893 3.233 0s0.893-2.34 0-3.233l-12.098-12.098z"></path>
</symbol>
<symbol id="icon-menu" viewBox="0 0 36 32">
<title>menu</title>
<path d="M0 17.778v-3.556h35.556v3.556h-35.556zM0 32v-3.556h35.556v3.556h-35.556zM0 3.556v-3.556h35.556v3.556h-35.556z"></path>
</symbol>
<symbol id="icon-caret-down" viewBox="0 0 48 32">
<title>caret-down</title>
<path d="M0.206 1.059h47.277l-23.637 30.278z"></path>
</symbol>
<symbol id="icon-search" viewBox="0 0 32 32">
<title>search</title>
<path d="M31.409 31.41c-0.787 0.787-2.064 0.787-2.852 0l-6.185-6.185c-2.336 1.745-5.224 2.79-8.364 2.79-7.736 0-14.007-6.27-14.007-14.007s6.271-14.008 14.007-14.008c7.736 0 14.007 6.272 14.007 14.008 0 3.139-1.046 6.029-2.791 8.365l6.185 6.185c0.788 0.787 0.788 2.064 0 2.852v0zM14 4c-5.523 0-10 4.477-10 10 0 5.521 4.477 10 10 10s10-4.479 10-10c0-5.523-4.477-10-10-10v0z"></path>
</symbol>
<symbol id="icon-package-opened" viewBox="0 0 32 32">
<title>package-opened</title>
<path d="M0.44 19.34c-0.268-0.125-0.44-0.394-0.44-0.69v-0.662c0-0.263 0.135-0.507 0.358-0.646l5.301-3.312c0.219-0.137 0.492-0.153 0.726-0.044l9.938 4.636c0.268 0.125 0.44 0.394 0.44 0.69v0.663c0 0.263-0.135 0.507-0.358 0.646l-5.301 3.313c-0.219 0.137-0.492 0.153-0.726 0.044l-9.938-4.638zM0.939 18.271l0.227 0.363 0.358-0.224v-0.245l-0.379-0.177h-0.074l-0.132 0.283zM10.647 22.422l4.367-2.729-8.899-4.152-4.367 2.728 8.898 4.153zM15.238 19.797l0.381 0.178h0.072l0.132-0.283-0.227-0.363-0.358 0.224v0.245zM30.476 18.165v0.245l0.358 0.224 0.227-0.363-0.132-0.283h-0.074l-0.379 0.177zM25.885 15.54l-8.899 4.152 4.367 2.73 8.898-4.153-4.367-2.729zM16.404 19.329l-0.227 0.363 0.132 0.283h0.072l0.381-0.178v-0.245l-0.358-0.224zM31.56 19.34l-9.938 4.638c-0.234 0.109-0.507 0.092-0.726-0.044l-5.301-3.313c-0.223-0.139-0.358-0.383-0.358-0.646v-0.663c0-0.296 0.171-0.565 0.44-0.69l9.938-4.637c0.234-0.109 0.507-0.092 0.726 0.044l5.301 3.313c0.223 0.139 0.358 0.383 0.358 0.646v0.662c0 0.296-0.171 0.565-0.44 0.69zM10.454 7.68l-8.627 4.026 4.247 2.123 3.307-1.543 1.073-4.606zM1.524 11.554l-0.384-0.192h-0.047l-0.171 0.343 0.149 0.32h0.072l0.381-0.178v-0.293zM10.84 7.5l-0.041-0.099-0.277-0.017-0.026 0.112 0.15 0.094 0.193-0.090zM10.361 13.51l-3.976 1.855c-0.211 0.098-0.455 0.095-0.663-0.009l-5.301-2.65c-0.258-0.129-0.421-0.393-0.421-0.681v-0.663c0-0.296 0.171-0.565 0.44-0.69l9.938-4.638c0.234-0.109 0.508-0.092 0.726 0.045l0.662 0.414c0.276 0.173 0.412 0.502 0.338 0.819l-1.323 5.681c-0.053 0.228-0.208 0.419-0.42 0.518z"></path>
<path d="M21.042 7.785l-0.808-1.292 0.663-0.414c0.219-0.137 0.492-0.154 0.726-0.044l9.938 4.638c0.268 0.125 0.44 0.394 0.44 0.69v0.663c0 0.289-0.163 0.552-0.421 0.681l-5.301 2.65c-0.208 0.104-0.452 0.107-0.663 0.009l-3.975-1.855 0.644-1.381 3.641 1.7 4.247-2.123-8.819-4.116-0.312 0.195zM15.238 19.975h1.524v10.6h-1.524v-10.6zM25.176 21.301h1.524v4.637c0 0.296-0.171 0.565-0.44 0.69l-9.938 4.638c-0.204 0.095-0.44 0.095-0.644 0l-9.938-4.638c-0.268-0.125-0.44-0.394-0.44-0.69v-4.637h1.524v4.152l9.176 4.282 9.176-4.282v-4.152z"></path>
<path d="M17.888 1.524h-3.776v7.851c0 0.421-0.341 0.762-0.762 0.762h-1.602l4.252 4.725 4.252-4.725h-1.602c-0.421 0-0.762-0.341-0.762-0.762v-7.851zM12.588 8.613v-7.851c0-0.421 0.341-0.762 0.762-0.762h5.3c0.421 0 0.762 0.341 0.762 0.762v7.851h2.551c0.66 0 1.008 0.781 0.566 1.272l-5.963 6.626c-0.303 0.336-0.83 0.336-1.133 0l-5.963-6.626c-0.441-0.49-0.093-1.272 0.566-1.272h2.551z"></path>
</symbol>
<symbol id="icon-package" viewBox="0 0 37 32">
<title>package</title>
<path d="M2.518 10.815v0.445h-1.778v-1.038l7.111-9.481h21.63l7.111 9.481v1.038h-1.778v-0.445l-6.222-8.296h-19.852z"></path>
<path d="M0.74 32.148v-21.778h35.852v21.778h-35.852zM2.518 30.371h32.297v-18.222h-32.297v18.222z"></path>
<path d="M5.333 6.963v-1.778h26.667v1.778h-26.667zM5.333 5.185h26.667v1.778h-26.667v-1.778zM9.702 24.74h-7.255l3.627-3.627 3.629 3.627zM6.702 22.999l-1.257 0 0.629 0.628 0.628-0.628zM5.185 23.111h1.778v3.704h-1.778v-3.704zM6.963 23.111v3.704h-1.778v-3.704h1.778zM14.147 24.74h-7.255l3.627-3.627 3.629 3.627zM11.147 22.999l-1.257 0 0.629 0.628 0.628-0.628zM9.629 23.111h1.778v3.704h-1.778v-3.704zM11.407 23.111v3.704h-1.778v-3.704h1.778zM4.593 29.185v-1.778h7.407v1.778h-7.407zM4.593 27.407h7.407v1.778h-7.407v-1.778zM30.23 15.351l-6.73 2.295 1.099 3.226 6.73-2.296-1.099-3.225zM23.49 23.128l-2.246-6.591 10.095-3.443 2.246 6.59-10.095 3.444z"></path>
<path d="M27.3 23.737l0.508-1.704 2.336 0.697-1.993 6.673-10.221-3.054 1.993-6.672 1.958 0.585-0.509 1.703-0.255-0.076-0.976 3.265 6.814 2.036 0.975-3.265z"></path>
</symbol>
<symbol id="icon-truck-moving" viewBox="0 0 49 32">
<title>truck-moving</title>
<path d="M44.903 13.97c1.774 0 3.028 1.287 3.028 3.237v6.772c0.001 1.673-1.353 3.030-3.028 3.032h-1.995v-2.065h1.994c0.533-0.001 0.965-0.433 0.965-0.967v-6.773c0-0.822-0.342-1.173-0.963-1.173h-1.605l-0.295-0.531-3.348-6.033c-0.179-0.263-0.477-0.42-0.796-0.42h-7.926v-2.065h7.926c1.001 0 1.938 0.495 2.551 1.402l3.102 5.582h0.391zM29.901 2.065h-15.932v-2.065h17.996v27.011h-16v-2.065h13.935v-22.882zM7.982 24.947v2.065h-4.989v-2.065h4.989z"></path>
<path d="M41.875 26.988c-0.002-0.785-0.315-1.537-0.872-2.091s-1.31-0.864-2.099-0.862c-1.634-0.003-2.962 1.318-2.966 2.948 0.004 1.634 1.331 2.956 2.97 2.953 0.785 0.002 1.539-0.308 2.095-0.862 0.541-0.538 0.852-1.264 0.871-2.025l-0-0.061zM43.943 25.953l-0.002 1.035c-0.003 1.333-0.536 2.61-1.48 3.55s-2.224 1.466-3.552 1.463c-2.774 0.006-5.028-2.238-5.034-5.017 0.006-2.774 2.26-5.018 5.030-5.012 1.332-0.003 2.612 0.523 3.556 1.463 0.697 0.694 1.17 1.571 1.371 2.519h0.113zM14.080 24.897c-0.556-0.554-1.31-0.864-2.099-0.862-1.634-0.003-2.962 1.318-2.966 2.948 0.004 1.634 1.331 2.956 2.97 2.953 0.785 0.002 1.538-0.308 2.095-0.862s0.869-1.304 0.872-2.088c-0.002-0.784-0.316-1.535-0.872-2.088zM17.016 26.983c-0.003 1.337-0.535 2.614-1.48 3.554s-2.223 1.466-3.551 1.463c-2.774 0.006-5.028-2.238-5.034-5.017 0.006-2.774 2.26-5.018 5.030-5.012 1.332-0.003 2.612 0.523 3.556 1.463s1.477 2.217 1.48 3.549zM30.934 27.011v-2.065h3.991v2.065h-3.991zM30.934 24.947h3.991v2.065h-3.991v-2.065zM29.988 17.032l8.164-6.536 2.795 4.189v2.346h-10.959zM38.653 14.968l-0.969-1.452-1.814 1.452h2.783zM39.056 15.572l0.859-0.573h-1.032v0.313l0.174 0.26zM0 14.039v-2.065h16.963v2.065h-16.963zM0 11.974h16.963v2.065h-16.963v-2.065zM7.982 8.052v-2.065h14.968v2.065h-14.968zM7.982 5.987h14.968v2.065h-14.968v-2.065zM5.987 5.987v2.065h-1.995v-2.065h1.995zM5.987 8.052h-1.995v-2.065h1.995v2.065zM11.974 0v2.065h-1.995v-2.065h1.995zM11.974 2.065h-1.995v-2.065h1.995v2.065z"></path>
</symbol>
<symbol id="icon-truck-package" viewBox="0 0 48 32">
<title>truck-package</title>
<path d="M5.801 3.1v9.567h-2.133v-11.7h28.233v25.333h-7.833v-2.133h5.699v-21.067z"></path>
<path d="M0.767 32.1v-18.567h22.433v18.567h-22.433zM2.9 29.967h18.166v-14.301h-18.166v14.301z"></path>
<path d="M7.534 19.534l-0.002-6h8.901v6h-8.899zM14.3 17.401v-1.733h-4.633l0 1.733h4.633zM4.734 28.234v-2.133h1.933v2.133h-1.933zM4.734 26.1h1.933v2.133h-1.933v-2.133zM8.601 28.234v-2.133h1.933v2.133h-1.933zM8.601 26.1h1.933v2.133h-1.933v-2.133z"></path>
<path d="M44.027 13.533h0.34c1.757 0 2.999 1.28 2.999 3.206v6.559c0 0.796-0.315 1.559-0.878 2.122s-1.326 0.879-2.122 0.879h-1.935v-2.133h1.935c0.23 0 0.45-0.091 0.613-0.254s0.254-0.383 0.254-0.613v-6.56c0-0.762-0.302-1.073-0.866-1.073h-1.595l-0.305-0.549-3.237-5.839c-0.162-0.236-0.431-0.378-0.718-0.378h-7.679v-2.133h7.679c0.991 0 1.919 0.489 2.53 1.391l2.985 5.374z"></path>
<path d="M40.542 24.237c-0.526-0.524-1.239-0.817-1.986-0.816-0.743-0.002-1.455 0.292-1.982 0.816s-0.823 1.235-0.824 1.973c0.004 1.546 1.26 2.796 2.811 2.793 1.545 0.003 2.801-1.246 2.806-2.791-0.002-0.742-0.299-1.452-0.824-1.976zM43.5 26.21c-0.007 2.729-2.22 4.932-4.94 4.926-2.724 0.006-4.937-2.197-4.944-4.926 0.003-1.308 0.525-2.562 1.453-3.485s2.183-1.44 3.487-1.437c1.308-0.003 2.564 0.514 3.492 1.437s1.45 2.177 1.453 3.485zM30.833 26.3v-2.133h3.867v2.133h-3.867zM30.833 24.166h3.867v2.133h-3.867v-2.133zM29.727 16.634l8.115-6.495 2.757 4.139v2.356h-10.873zM38.184 14.5l-0.827-1.241-1.551 1.241h2.377zM38.645 15.192l0.888-0.591h-1.067v0.323l0.179 0.269z"></path>
</symbol>
<symbol id="icon-check-long" viewBox="0 0 42 32">
<title>check-long</title>
<path d="M13.913 24.974l-9.67-9.67-3.293 3.27 12.963 12.963 27.826-27.826-3.27-3.27z"></path>
</symbol>
<symbol id="icon-angle-down" viewBox="0 0 53 32">
<title>angle-down</title>
<path d="M52 6.133l-6.016-6.016-19.584 19.541-19.584-19.541-6.016 6.016 25.6 25.6z"></path>
</symbol>
<symbol id="icon-add-circled" viewBox="0 0 32 32">
<title>add-circled</title>
<path d="M16 32c-8.837 0-16-7.163-16-16s7.163-16 16-16c8.837 0 16 7.163 16 16s-7.163 16-16 16zM16 29.538c7.477 0 13.538-6.061 13.538-13.538s-6.061-13.538-13.538-13.538c-7.477 0-13.538 6.061-13.538 13.538s6.061 13.538 13.538 13.538z"></path>
<path d="M21.886 17.371h-4.47v4.514h-1.887v-4.514h-4.452v-1.759h4.45v-4.535h1.887v4.535h4.471z"></path>
</symbol>
<symbol id="icon-check-bold" viewBox="0 0 38 32">
<title>check-bold</title>
<path d="M12.587 22.285l20.333-20.314 4.215 4.215-24.549 24.549-12.244-12.244 4.24-4.21z"></path>
</symbol>
<symbol id="icon-user" viewBox="0 0 32 32">
<title>user</title>
<path d="M16 0c-8.835 0.003-15.997 7.165-16 16 0 8.832 7.168 16 16 16s16-7.168 16-16c0-8.832-7.168-16-16-16zM16 4.8c1.273-0.002 2.495 0.504 3.396 1.404s1.406 2.122 1.404 3.396c0.002 1.274-0.504 2.495-1.404 3.396s-2.122 1.406-3.396 1.404c-1.274 0.002-2.495-0.504-3.396-1.404s-1.406-2.122-1.404-3.396c-0.002-1.274 0.504-2.495 1.404-3.396s2.122-1.406 3.396-1.404zM16 27.52c-3.861 0-7.466-1.934-9.6-5.152 0.049-3.183 6.4-4.928 9.6-4.928 3.183 0 9.553 1.743 9.6 4.928-2.134 3.218-5.739 5.152-9.6 5.152z"></path>
</symbol>
<symbol id="icon-chat" viewBox="0 0 33 32">
<title>chat</title>
<path d="M27.446 0h-21.612c-3.224 0.008-5.834 2.623-5.834 5.847v13.359c0.001 3.224 2.61 5.839 5.834 5.847h13.765l6.589 6.605c0.333 0.336 0.837 0.437 1.274 0.255s0.721-0.61 0.718-1.083v-5.823c2.916-0.378 5.098-2.861 5.1-5.801v-13.359c-0.001-3.224-2.61-5.839-5.834-5.847zM30.947 19.206c0 1.935-1.566 3.504-3.501 3.508h-0.431c-0.31 0-0.607 0.124-0.826 0.343s-0.342 0.517-0.341 0.827v4.122l-4.94-4.948c-0.218-0.219-0.515-0.343-0.824-0.343h-14.249c-1.935-0.004-3.501-1.574-3.501-3.508v-13.358c0-1.935 1.566-3.504 3.501-3.508h21.612c1.934 0.004 3.5 1.573 3.501 3.507v13.359z"></path>
<path d="M24.452 7.68h-16.904c-0.634 0-1.148 0.573-1.148 1.28s0.515 1.28 1.148 1.28h16.904c0.634 0 1.148-0.573 1.148-1.28s-0.515-1.28-1.148-1.28zM24.452 15.36h-16.904c-0.634 0-1.148 0.573-1.148 1.28s0.515 1.28 1.148 1.28h16.904c0.634 0 1.148-0.573 1.148-1.28s-0.515-1.28-1.148-1.28z"></path>
</symbol>
<symbol id="icon-phone-fill" viewBox="0 0 28 32">
<title>phone-fill</title>
<path d="M11.015 19.422c-5.737-5.886-2.868-8.452-1.209-9.812 2.116-1.81 1.511-3.621-0.149-6.34-1.358-2.414-3.019-4.075-4.679-2.868-0.756 0.453-3.623 2.265-4.679 6.491-1.058 4.228 0.604 9.813 6.489 16.151 5.888 6.34 9.813 8.151 14.19 7.547s6.489-3.17 6.942-3.772c1.36-1.66-0.149-3.321-2.263-4.981-2.416-1.812-4.226-2.716-6.188-0.907-1.66 1.36-3.321 3.774-8.453-1.509z"></path>
</symbol>
<symbol id="icon-bank" viewBox="0 0 29 32">
<title>bank</title>
<path d="M3.048 16v6.095c0 1.265 1.021 2.286 2.286 2.286s2.286-1.021 2.286-2.286v-6.095c0-1.265-1.021-2.286-2.286-2.286s-2.286 1.021-2.286 2.286zM12.19 16v6.095c0 1.265 1.021 2.286 2.286 2.286s2.286-1.021 2.286-2.286v-6.095c0-1.265-1.021-2.286-2.286-2.286s-2.286 1.021-2.286 2.286zM2.286 32h24.381c1.265 0 2.286-1.021 2.286-2.286s-1.021-2.286-2.286-2.286h-24.381c-1.265 0-2.286 1.021-2.286 2.286s1.021 2.286 2.286 2.286zM21.333 16v6.095c0 1.265 1.021 2.286 2.286 2.286s2.286-1.021 2.286-2.286v-6.095c0-1.265-1.021-2.286-2.286-2.286s-2.286 1.021-2.286 2.286zM13.059 0.747l-12.038 6.339c-0.625 0.32-1.021 0.975-1.021 1.676 0 1.051 0.853 1.905 1.905 1.905h25.158c1.036 0 1.89-0.853 1.89-1.905 0-0.701-0.396-1.356-1.021-1.676l-12.038-6.339c-0.884-0.472-1.95-0.472-2.834 0z"></path>
</symbol>
<symbol id="icon-store" viewBox="0 0 40 32">
<title>store</title>
<path d="M6 4h28c1.1 0 2-0.9 2-2s-0.9-2-2-2h-28c-1.1 0-2 0.9-2 2s0.9 2 2 2zM36.32 7.6c-0.18-0.92-1-1.6-1.96-1.6h-28.72c-0.96 0-1.78 0.68-1.96 1.6l-2 10c-0.24 1.24 0.7 2.4 1.96 2.4h0.36v10c0 1.1 0.9 2 2 2h16c1.1 0 2-0.9 2-2v-10h8v10c0 1.1 0.9 2 2 2s2-0.9 2-2v-10h0.36c1.26 0 2.2-1.16 1.96-2.4l-2-10zM20 28h-12v-8h12v8z"></path>
</symbol>
<symbol id="icon-warning" viewBox="0 0 37 32">
<path d="M0 32h37.053l-18.526-32-18.526 32zM20.211 26.947h-3.368v-3.368h3.368v3.368zM20.211 20.211h-3.368v-6.737h3.368v6.737z"></path>
</symbol>
</defs>
</svg>
